<svg width="42" height="50" viewBox="0 0 42 50" fill="none" xmlns="http://www.w3.org/2000/svg">
<rect width="41.5548" height="41.5548" fill="white" fill-opacity="0.01"/>
<path fill-rule="evenodd" clip-rule="evenodd" d="M34.618 25.3479C34.4793 24.8454 32.9812 25.06 31.7488 24.9503C30.6278 24.8492 29.1888 24.6518 27.4589 24.0606C25.8424 23.5094 24.2774 22.8771 22.9121 22.1514C22.9121 22.1514 22.3603 21.8653 22.3021 21.832C22.1887 21.7642 22.0975 21.7156 21.9879 21.6479C21.9191 21.6078 21.8192 21.5496 21.7426 21.5172C21.6486 21.4772 21.5836 21.4267 21.5012 21.3761C21.4168 21.3256 21.3024 21.2712 21.2171 21.2216C21.091 21.1434 21.0134 21.0852 20.8952 21.0013C20.8214 20.9489 20.7846 20.9336 20.6867 20.8745C20.6285 20.8392 20.5209 20.7839 20.4685 20.7486C20.3589 20.6771 20.2891 20.618 20.1795 20.5436C20.1126 20.4969 20.0632 20.4673 19.9827 20.4196C19.9032 20.371 19.8285 20.3109 19.7587 20.2604C19.7209 20.2318 19.6637 20.1993 19.6288 20.1641C19.5483 20.0887 19.4688 20.0201 19.3854 19.9533C19.3078 19.8961 19.236 19.8265 19.1595 19.7721C19.1119 19.7359 19.0295 19.6672 18.982 19.6338C18.8579 19.5451 18.7803 19.4812 18.6581 19.3925C18.5786 19.3353 18.5117 19.26 18.4332 19.2028C18.3449 19.1369 18.2635 19.0645 18.1723 19.0006C18.1141 18.9596 18.0462 18.9072 18.0016 18.8614C17.9425 18.7927 17.8863 18.746 17.8261 18.6764C17.7815 18.6277 17.6923 18.5743 17.6429 18.5228C17.5672 18.4284 17.4606 18.3283 17.3588 18.253C17.2996 18.1986 17.2802 18.1728 17.2579 18.1442C17.2405 18.1194 17.2181 18.0908 17.1697 18.0412C17.1202 17.9926 17.1047 17.9783 17.0824 17.9583C17.062 17.9382 17.0359 17.9144 16.9699 17.8515C16.9486 17.8305 16.9137 17.7828 16.8788 17.7361C16.8477 17.6951 16.8196 17.656 16.7993 17.634C16.7401 17.5711 16.6994 17.5282 16.6577 17.4834C16.6266 17.4528 16.5956 17.4195 16.5549 17.3784C16.5326 17.3527 16.5122 17.3241 16.4938 17.2964C16.4754 17.2678 16.456 17.2402 16.4337 17.2173C16.3978 17.1772 16.3716 17.1906 16.3629 17.1953C16.3406 17.2106 16.3338 17.2526 16.358 17.3022C16.3881 17.3603 16.4346 17.4252 16.4637 17.4643C16.4696 17.4729 16.4744 17.4795 16.4783 17.4843C16.4899 17.5024 16.4996 17.5224 16.5103 17.5406C16.5268 17.5682 16.5432 17.5968 16.5636 17.6244C16.6102 17.6845 16.6596 17.7351 16.7071 17.7846C16.7226 17.799 16.7401 17.8161 16.7537 17.8323C16.7866 17.8667 16.8119 17.901 16.8371 17.9382C16.8642 17.9754 16.8914 18.0154 16.9272 18.0526C16.9447 18.0688 16.9573 18.0889 16.9709 18.106C16.9864 18.127 17.0029 18.1489 17.0213 18.1661C17.0485 18.1909 17.0756 18.2205 17.1028 18.2472C17.1474 18.2929 17.1949 18.3416 17.2405 18.3788C17.2754 18.4074 17.3103 18.4426 17.3471 18.4789C17.4392 18.5848 17.5372 18.6925 17.6196 18.7946C17.6681 18.8546 17.7524 18.8966 17.8058 18.9366C17.864 18.9796 17.9115 19.0558 17.9571 19.114C17.9929 19.155 18.0715 19.2246 18.1093 19.2666C18.2014 19.3839 18.2635 19.4459 18.3828 19.5327C18.4574 19.5861 18.5137 19.6338 18.5699 19.7043C18.6019 19.7463 18.7076 19.8464 18.7464 19.8931C18.8462 20.019 18.8909 20.1335 18.8773 20.1382C18.8084 20.1544 18.6436 20.0114 18.5457 19.9484C18.4642 19.896 18.4516 19.875 18.3769 19.8188C18.3585 19.8035 18.2383 19.7205 18.1966 19.669C18.1626 19.6395 18.0724 19.5432 18.0443 19.5088C17.9076 19.3382 17.8601 19.3277 17.7021 19.1751C17.5876 19.0654 17.4451 18.9653 17.3326 18.868C17.2996 18.8318 17.2667 18.7965 17.2327 18.7612C17.1949 18.724 17.1483 18.6897 17.1173 18.6544C17.065 18.5895 16.9942 18.4627 16.9311 18.416C16.8642 18.3683 16.8177 18.3216 16.7508 18.2739C16.7275 18.2577 16.7052 18.2272 16.6819 18.209C16.6499 18.1861 16.6131 18.1594 16.5879 18.1299C16.5113 18.0326 16.4356 17.9353 16.358 17.838C16.3222 17.7913 16.2718 17.7532 16.2359 17.7055C16.1602 17.6035 16.0982 17.4967 16.0225 17.3984C15.9159 17.2621 15.7636 17.1648 15.6608 17.0275C15.5561 16.8854 15.4921 16.7204 15.3932 16.5726C15.3496 16.5087 15.2827 16.4629 15.2371 16.4019C15.209 16.3657 15.1954 16.3247 15.1692 16.2856C15.1169 16.2064 15.0538 16.1292 15.0005 16.0529C14.9287 15.9518 14.8812 15.8412 14.8114 15.7353C14.7998 15.7201 14.7765 15.6476 14.7329 15.5942C14.6902 15.5417 14.6534 15.4826 14.6049 15.4073C14.5574 15.3319 14.5331 15.2823 14.4992 15.2299C14.4633 15.1784 14.441 15.1297 14.4177 15.0925C14.3954 15.0563 14.3441 14.9886 14.3266 14.9619C14.2626 14.8637 14.2451 14.8189 14.1763 14.7292C14.1365 14.6749 14.0919 14.6281 14.0551 14.6415C14.025 14.6625 14.0357 14.6968 14.0425 14.7206C14.0725 14.8007 14.0725 14.7865 14.1036 14.8436C14.1569 14.939 14.1763 14.9848 14.2335 15.0716C14.2597 15.1135 14.3052 15.2089 14.3431 15.2623C14.3799 15.3157 14.4177 15.3767 14.4429 15.4216C14.4682 15.4673 14.5099 15.5884 14.5496 15.639C14.5787 15.6752 14.6185 15.7506 14.6456 15.8039C14.7019 15.9127 14.7717 15.9975 14.8289 16.0843C14.8686 16.1539 14.9065 16.2236 14.9443 16.2951C15.0199 16.4067 15.1101 16.5135 15.1857 16.6279C15.2332 16.7099 15.2778 16.79 15.3224 16.872C15.368 16.9378 15.4291 16.9941 15.4737 17.0618C15.528 17.1438 15.5581 17.2325 15.6114 17.3107C15.6541 17.3746 15.7094 17.4337 15.752 17.4957C15.8247 17.6035 15.8897 17.7065 15.9663 17.8085C16.009 17.8638 16.0643 17.9115 16.106 17.9687C16.1642 18.044 16.2098 18.1356 16.2708 18.2004C16.3416 18.2672 16.362 18.3063 16.4182 18.3711C16.5026 18.4684 16.7101 18.7583 16.6752 18.7612C16.553 18.7764 16.3184 18.5132 16.2185 18.4198C16.1409 18.3444 16.0565 18.291 16.0022 18.2195C15.9247 18.1155 15.8665 17.9982 15.787 17.8962C15.7588 17.86 15.7162 17.8314 15.6871 17.7961C15.6328 17.7265 15.5833 17.6549 15.5203 17.5939C15.4951 17.5691 15.466 17.5482 15.4417 17.5205C15.3467 17.3984 15.2653 17.2697 15.1712 17.1448C15.1324 17.0933 15.082 17.0465 15.0442 16.9951C15.0132 16.9559 14.9967 16.9111 14.9695 16.8682C14.9317 16.811 14.8842 16.7557 14.8454 16.6994C14.8173 16.6575 14.7998 16.6146 14.7717 16.5726C14.7213 16.4973 14.6534 16.4315 14.603 16.3542C14.5613 16.2932 14.5507 16.2112 14.5099 16.1492C14.4071 15.9919 14.2918 15.8307 14.188 15.6733C14.1618 15.6324 14.1511 15.5875 14.1259 15.5456C14.0425 15.4178 13.964 15.2767 13.8806 15.1498C13.8505 15.1012 13.836 15.0478 13.8059 15.002C13.7681 14.9429 13.7099 14.899 13.6711 14.8418C13.643 14.797 13.6314 14.7493 13.6081 14.6987C13.5751 14.6339 13.5334 14.5671 13.4985 14.5042C13.4772 14.4642 13.4656 14.4251 13.4413 14.3869C13.3415 14.2353 13.26 14.0703 13.1776 13.9006C13.1349 13.8128 13.0719 13.7299 13.0292 13.6411C12.9807 13.5429 12.9361 13.4418 12.8906 13.3465C12.8663 13.2797 12.843 13.2149 12.8198 13.15C12.7703 13.047 12.6966 12.9603 12.6481 12.8535C12.6152 12.7819 12.5996 12.7142 12.5677 12.6542C12.5502 12.617 12.5134 12.5874 12.4871 12.6036C12.461 12.6189 12.4571 12.6523 12.4736 12.7085C12.5046 12.8153 12.5667 12.9393 12.5948 13.0013C12.651 13.1234 12.6801 13.2511 12.7364 13.3751C12.7674 13.4447 12.813 13.5106 12.844 13.5773C12.9003 13.6936 12.9536 13.8138 13.0069 13.9263C13.0389 13.9921 13.0632 14.0551 13.1 14.1171C13.1184 14.1495 13.1466 14.1847 13.163 14.2219C13.1979 14.3001 13.2086 14.3841 13.2455 14.4594C13.2843 14.5385 13.3444 14.6044 13.3822 14.6816C13.5723 15.0793 13.7642 15.4597 13.9941 15.8126C14.059 15.9118 14.092 16.0329 14.156 16.1302C14.2229 16.2322 14.3141 16.3104 14.38 16.4115C14.4353 16.4935 14.4479 16.6079 14.4983 16.6966C14.572 16.8311 14.6699 16.9426 14.7514 17.0676C14.7737 17.1019 14.7815 17.142 14.8037 17.1782C14.8338 17.2268 14.8726 17.2736 14.9066 17.3213C14.9473 17.3861 14.9676 17.4614 15.0142 17.5225C15.0627 17.5873 15.1325 17.6426 15.181 17.7084C15.2411 17.7904 15.2828 17.8839 15.3458 17.9669C15.3894 18.0251 15.4573 18.0641 15.5009 18.1214C15.5717 18.2119 15.8132 18.5247 15.883 18.6125C15.9906 18.747 16.1797 18.9434 16.2699 19.1208C16.2971 19.1742 16.3931 19.3039 16.3727 19.3287C16.3203 19.362 16.0818 19.1045 16.041 19.0664C15.9412 18.9711 15.8539 18.8423 15.7666 18.7345C15.7472 18.7097 15.5165 18.4885 15.4961 18.4637C15.4738 18.4341 15.4496 18.4027 15.4292 18.3731C15.3662 18.2797 15.3283 18.1671 15.2585 18.0765C15.2295 18.0403 15.1868 18.0126 15.1577 17.9754C15.1053 17.9086 15.0675 17.8286 15.0171 17.759C14.9356 17.6493 14.8309 17.5501 14.7485 17.4414C14.6583 17.3203 14.5963 17.1791 14.5051 17.0599C14.4595 17.0018 14.4013 16.9484 14.3587 16.8854C14.3412 16.8568 14.3325 16.8301 14.3141 16.8006C14.2811 16.7519 14.2375 16.6966 14.2113 16.6422C14.187 16.5917 14.1715 16.544 14.1424 16.5002C14.0474 16.3533 13.9533 16.1998 13.8583 16.0548C13.8166 15.989 13.7923 15.9184 13.7507 15.8536C13.6799 15.7458 13.5907 15.6495 13.5199 15.5408C13.4365 15.413 13.389 15.2566 13.3075 15.1298C13.2513 15.044 13.1873 14.9648 13.132 14.8799C13.0719 14.7884 13.0419 14.6797 12.9876 14.5833C12.942 14.4994 12.876 14.4212 12.8343 14.3354C12.7897 14.2429 12.7577 14.1504 12.7122 14.056C12.687 14.0055 12.6501 13.9549 12.6268 13.9015C12.5977 13.8357 12.59 13.7709 12.5599 13.707C12.4784 13.5286 12.3543 13.3608 12.269 13.1834C12.2079 13.0566 12.1546 12.9259 12.1041 12.7915C12.077 12.719 12.0654 12.6494 12.0324 12.5807C11.9568 12.4177 11.8646 12.246 11.791 12.0839C11.7599 11.9981 11.7279 11.9113 11.695 11.8254C11.6901 11.8006 11.6882 11.7768 11.6775 11.7501C11.6436 11.6748 11.597 11.5994 11.5679 11.5241C11.5388 11.4364 11.5117 11.3486 11.4826 11.2599C11.3663 10.9738 11.2615 10.6506 11.151 10.3521C11.1355 10.2977 11.1335 10.23 11.1122 10.1718C11.057 10.0202 10.9988 9.8676 10.9425 9.71216C10.9096 9.63493 10.8349 9.66167 10.8514 9.74077C10.8746 9.84666 10.8892 9.87237 10.9067 9.95537C10.9163 9.99732 10.9241 10.0393 10.9328 10.0813C10.9445 10.1318 10.9706 10.1861 10.9862 10.2338C11.0153 10.3244 11.0182 10.4169 11.0501 10.5037C11.0938 10.6277 11.1394 10.7459 11.1801 10.8737C11.1937 10.9367 11.2072 10.9996 11.2198 11.0635C11.2373 11.1226 11.2615 11.1836 11.2838 11.238C11.3488 11.3934 11.4099 11.5432 11.4662 11.6967C11.4894 11.7844 11.5117 11.8732 11.535 11.9609C11.5573 12.0105 11.5922 12.061 11.6145 12.1087C11.6339 12.1506 11.6397 12.1907 11.6562 12.2355C11.6969 12.3347 11.7347 12.4367 11.7794 12.5359C11.8181 12.6189 11.8628 12.7028 11.8967 12.7896C11.9112 12.8325 11.9112 12.8687 11.9267 12.9116C12.0247 13.1739 12.1304 13.4476 12.2438 13.6936C12.2729 13.7565 12.2807 13.8204 12.3098 13.8834C12.333 13.9358 12.366 13.9921 12.3903 14.0426C12.4019 14.076 12.4135 14.1094 12.4251 14.1428C12.461 14.2162 12.5211 14.2772 12.556 14.3487C12.654 14.5528 12.7422 14.7464 12.8654 14.92C12.9788 15.0802 13.0283 15.2928 13.1155 15.4855C13.1553 15.5761 13.2115 15.6543 13.2639 15.7344C13.2891 15.7763 13.3066 15.8221 13.3279 15.866C13.3841 15.9661 13.4142 16.0539 13.4811 16.1416C13.5335 16.2141 13.5296 16.2312 13.5742 16.3323C13.5878 16.3619 13.6382 16.5526 13.6285 16.5526C13.6111 16.565 13.515 16.5087 13.4821 16.4725C13.4394 16.4248 13.3706 16.3619 13.323 16.257C13.2998 16.2064 13.2513 16.1158 13.227 16.0662C13.1669 15.9385 13.0651 15.8317 12.9895 15.7163C12.9459 15.6485 12.9216 15.5732 12.8857 15.4998C12.8227 15.3663 12.75 15.2299 12.684 15.0926C12.6569 15.0353 12.6152 14.9791 12.5822 14.9285C12.5473 14.8751 12.5318 14.817 12.495 14.7645C12.4193 14.6482 12.334 14.5166 12.2738 14.3888C12.2292 14.2953 12.206 14.2 12.1623 14.1084C12.1478 14.0798 12.1236 14.0522 12.1041 14.0245C12.0741 13.9768 12.0615 13.9234 12.0353 13.871C12.0014 13.7995 11.951 13.7327 11.916 13.6602C11.8491 13.5143 11.8094 13.3646 11.7386 13.2216C11.7085 13.1538 11.6533 13.0976 11.6203 13.0299C11.5718 12.9278 11.5679 12.8 11.5175 12.6923C11.3895 12.4091 11.2431 12.1182 11.1335 11.8216C11.116 11.772 11.1112 11.7158 11.0957 11.6624C11.0482 11.5346 10.9851 11.4144 10.9376 11.2866C10.9163 11.2304 10.9095 11.177 10.8891 11.1188C10.8571 11.032 10.8154 10.9414 10.7834 10.8546C10.7747 10.8241 10.7718 10.7945 10.7602 10.765C10.7214 10.683 10.6981 10.5857 10.6593 10.5008C10.638 10.457 10.6069 10.4103 10.5895 10.3635C10.5575 10.2786 10.5672 10.1709 10.5361 10.0889C10.4925 9.9668 10.4392 9.83899 10.3965 9.71979C10.3693 9.65113 10.3655 9.58345 10.3403 9.51385C10.3112 9.43373 10.2792 9.34505 10.2501 9.26493C10.2191 9.18197 10.221 9.09425 10.1929 9.00651C10.1735 8.94165 10.1444 8.87299 10.1221 8.81104C10.0794 8.69564 10.063 8.57167 10.0174 8.46294C10.0116 8.44289 10.0048 8.42289 9.99604 8.40381C9.98539 8.37327 9.96599 8.34372 9.93496 8.35327C9.90004 8.36186 9.90102 8.40571 9.90295 8.43529C9.90877 8.51921 9.94174 8.5974 9.96694 8.66796C9.99411 8.74139 10.0077 8.81958 10.029 8.89015C10.0397 8.93404 10.0377 8.98362 10.0494 9.03226C10.0649 9.09996 10.0901 9.16674 10.1105 9.23251C10.126 9.30024 10.1182 9.36507 10.1328 9.41657C10.1774 9.56249 10.2268 9.7265 10.2763 9.86575C10.2976 9.93727 10.3005 10.0202 10.3219 10.0822C10.35 10.1556 10.3771 10.2291 10.4043 10.3034C10.4276 10.3654 10.4334 10.4255 10.4596 10.4837C10.4867 10.5448 10.5187 10.6096 10.542 10.6792C10.5711 10.7688 10.5682 10.8585 10.5992 10.9424C10.6496 11.0798 10.7146 11.2113 10.7631 11.3439C10.7786 11.3916 10.7844 11.4431 10.8019 11.4917C10.8436 11.6071 10.8717 11.7301 10.9143 11.8455C10.9754 12.0105 11.0539 12.1697 11.1131 12.3309C11.1732 12.4911 11.18 12.6837 11.2479 12.8325C11.2838 12.9069 11.3565 12.9507 11.3895 13.0242C11.4108 13.07 11.4059 13.1224 11.4224 13.1768C11.4409 13.2388 11.4709 13.2988 11.4922 13.3561C11.5058 13.4075 11.5204 13.4581 11.5359 13.5087C11.5572 13.5707 11.5999 13.6298 11.628 13.6889C11.6726 13.7852 11.6939 13.8844 11.7492 13.9702C11.7919 14.0331 11.8452 14.0932 11.8801 14.1647C11.9179 14.2448 11.9325 14.3297 11.9684 14.4127C12.0246 14.5347 12.0905 14.6511 12.1361 14.777C12.1797 14.8914 12.1953 15.0154 12.2505 15.1165C12.3068 15.2147 12.3766 15.3062 12.4319 15.4073C12.4668 15.4808 12.5017 15.5551 12.5375 15.6286C12.5666 15.6887 12.6209 15.742 12.6549 15.804C12.6985 15.8784 12.7412 15.9595 12.7761 16.0358C12.8033 16.094 12.8129 16.1492 12.8469 16.1998C12.8973 16.279 12.9342 16.341 12.9856 16.4192C13.0311 16.4888 13.0825 16.5774 13.1145 16.6595C13.1388 16.7224 13.164 16.7872 13.1999 16.8407C13.2377 16.8922 13.2901 16.9399 13.324 16.999C13.357 17.0571 13.4025 17.244 13.3851 17.2536C13.3444 17.2679 13.227 17.1582 13.195 17.1191C13.1029 17.0085 13.0564 16.8607 12.973 16.7424C12.8838 16.6184 12.8256 16.546 12.7567 16.401C12.717 16.3171 12.6453 16.1664 12.5958 16.093C12.5493 16.0224 12.4871 15.9595 12.4503 15.8813C12.4203 15.8164 12.4057 15.7392 12.3776 15.6743C12.333 15.5818 12.2428 15.5208 12.1972 15.4264C12.1468 15.3196 12.1235 15.209 12.0683 15.1079C12.0431 15.0593 12.0062 15.0059 11.9829 14.9553C11.951 14.8914 11.9373 14.8294 11.9073 14.7665C11.8452 14.6359 11.7512 14.5243 11.6901 14.3955C11.6261 14.262 11.5912 14.118 11.5253 13.9836C11.4903 13.9111 11.4302 13.8501 11.3953 13.7767C11.3478 13.6794 11.3245 13.5793 11.277 13.481C11.2489 13.4219 11.2072 13.3637 11.18 13.3065C11.1393 13.2216 11.1257 13.1301 11.085 13.0423C10.9958 12.8449 10.9017 12.637 10.8115 12.4406C10.7786 12.3643 10.7698 12.2832 10.735 12.2079C10.6991 12.1402 10.6661 12.0734 10.6312 12.0067C10.5526 11.8322 10.5245 11.6281 10.446 11.4526C10.4043 11.3639 10.3549 11.2781 10.318 11.1818C10.2618 11.0321 10.2395 10.8776 10.1842 10.724C10.0979 10.4885 10.03 10.2444 9.9447 10.0107C9.91849 9.94016 9.9156 9.87241 9.88942 9.79899C9.86323 9.73035 9.83803 9.6626 9.81282 9.59397C9.79439 9.54059 9.78373 9.45951 9.76821 9.38801C9.70517 9.18965 9.63925 8.99223 9.57427 8.79101C9.56072 8.74334 9.55781 8.65848 9.54227 8.59648C9.53064 8.56214 9.51124 8.5221 9.50057 8.49062C9.48312 8.44487 9.48407 8.40672 9.46858 8.35808C9.42204 8.21313 9.38129 8.04529 9.33477 7.90034C9.32119 7.85266 9.31637 7.78874 9.30181 7.73633C9.23588 7.52938 9.20485 7.27572 9.12048 7.08309C9.10398 7.04685 9.07976 7.00678 9.0429 7.01537C9.00512 7.0249 9.01381 7.06687 9.01868 7.10213C9.02935 7.19654 9.06424 7.27856 9.07978 7.35584C9.08658 7.39016 9.08561 7.43973 9.08947 7.4817C9.0953 7.51696 9.09821 7.56086 9.11081 7.59804C9.14862 7.72011 9.19421 7.866 9.23104 7.98806C9.24364 8.04719 9.233 8.13684 9.24849 8.20454C9.30279 8.40005 9.34253 8.63557 9.41526 8.81108C9.48216 8.97221 9.49381 9.16484 9.54134 9.33937C9.55587 9.41279 9.55974 9.49005 9.57043 9.56537C9.58206 9.63883 9.62376 9.6884 9.647 9.7504C9.6635 9.79521 9.66254 9.83432 9.67803 9.88295C9.7178 10.0069 9.74592 10.1309 9.79342 10.2568C9.82542 10.3445 9.87295 10.4265 9.90395 10.5104C9.91753 10.5505 9.91269 10.5839 9.92333 10.6278C9.94467 10.7126 9.96114 10.8004 9.98637 10.8852C10.0484 11.0569 10.1086 11.2419 10.1706 11.4135C10.2055 11.5089 10.2162 11.6014 10.2501 11.6939C10.3878 12.062 10.5284 12.4311 10.6642 12.7973C10.6865 12.8773 10.7088 12.9593 10.732 13.0395C10.7621 13.1224 10.8115 13.1921 10.8465 13.2664C10.8911 13.3628 10.9047 13.4619 10.9425 13.563C10.9861 13.6803 11.0423 13.7718 11.0879 13.8959C11.1102 13.954 11.1316 14.0189 11.1587 14.0751C11.18 14.118 11.2178 14.1581 11.2382 14.202C11.275 14.2754 11.2818 14.366 11.3148 14.4394C11.3516 14.5128 11.4156 14.5729 11.4583 14.6406C11.4981 14.7045 11.5029 14.7846 11.5349 14.858C11.5853 14.9696 11.6532 15.0726 11.7017 15.1909C11.7221 15.2405 11.7327 15.2843 11.755 15.333C11.7812 15.3883 11.8219 15.4398 11.8481 15.4951C11.8481 15.4951 11.851 15.497 11.852 15.5018C11.8549 15.5103 11.8578 15.5208 11.8617 15.5323C11.8675 15.5552 11.8743 15.5847 11.8821 15.6048C11.8937 15.6362 11.9306 15.6944 11.9451 15.7154C11.9548 15.7278 11.979 15.7564 12.0013 15.7822C12.011 15.7926 12.0197 15.8041 12.0304 15.8174C12.0789 15.8937 12.0847 16.0024 12.1245 16.0864C12.1652 16.1684 12.237 16.2332 12.2767 16.319C12.3097 16.3839 12.3272 16.5441 12.2864 16.5517C12.1157 16.5508 12.1041 16.3181 12.0488 16.196C12.0042 16.1016 11.9344 16.0224 11.883 15.9309C11.8733 15.9138 11.8568 15.8775 11.8452 15.8403C11.8346 15.8079 11.821 15.7736 11.8084 15.7469C11.7861 15.702 11.7861 15.7087 11.7716 15.6773C11.7551 15.6467 11.7095 15.5876 11.693 15.56C11.693 15.5562 11.692 15.5552 11.691 15.5542C11.627 15.4503 11.5844 15.3054 11.5369 15.2367C11.5116 15.1976 11.4777 15.1585 11.4525 15.1194C11.4098 15.0545 11.3885 14.9754 11.3536 14.9039C11.3226 14.8362 11.2712 14.7713 11.2402 14.7027C11.2024 14.6197 11.2004 14.5176 11.1607 14.4337C11.1403 14.3889 11.1025 14.3432 11.0811 14.3002C11.0336 14.2058 11.0055 14.1038 10.958 14.0113C10.9366 13.9655 10.8959 13.9236 10.8736 13.8787C10.8358 13.7986 10.8154 13.7137 10.7747 13.6403C10.6845 13.4839 10.5895 13.3094 10.5148 13.1444C10.4722 13.0462 10.4576 12.947 10.414 12.8535C10.3772 12.7706 10.3267 12.6886 10.2879 12.6104C10.2627 12.556 10.2569 12.5045 10.2346 12.4464C10.1997 12.3529 10.157 12.2575 10.1221 12.166C10.1008 12.1031 10.0853 11.9639 10.0649 11.9085C10.0387 11.8379 10.0019 11.7636 9.97184 11.6959C9.92529 11.5938 9.90978 11.486 9.86419 11.384C9.82929 11.3058 9.78953 11.2229 9.75947 11.1418C9.73427 11.0731 9.72844 11.0102 9.69935 10.9463C9.67801 10.8996 9.64891 10.8423 9.62953 10.7937C9.60819 10.7327 9.59172 10.6345 9.57232 10.5553C9.54325 10.4676 9.50541 10.3837 9.47732 10.2969C9.4618 10.233 9.45987 10.0842 9.44338 10.0442C9.35127 9.77429 9.26398 9.48915 9.17865 9.22021C9.13793 9.09721 9.12048 8.97228 9.0846 8.85019C9.07102 8.80348 9.07007 8.74242 9.05649 8.69285C9.03223 8.61465 8.99927 8.53552 8.97404 8.45637C8.96144 8.40106 8.95175 8.34574 8.94108 8.29236C8.92845 8.23703 8.8984 8.17886 8.87804 8.12262C8.82374 7.96048 8.7966 7.78978 8.74617 7.63243C8.73067 7.56569 8.73067 7.48081 8.7132 7.42168C8.65016 7.22619 8.63563 6.9992 8.57744 6.79323C8.5629 6.7341 8.55416 6.67403 8.54058 6.61967C8.4378 6.23535 8.39319 5.80625 8.27876 5.43716C8.25742 5.3666 8.28459 5.27792 8.26423 5.19973C8.24289 5.11583 8.21866 5.03855 8.19248 4.96322C8.18181 4.92315 8.18181 4.89362 8.1731 4.85736C8.15371 4.79442 8.12557 4.74672 8.09065 4.75245C8.04993 4.76581 8.05769 4.80301 8.05962 4.85642C8.06351 4.94128 8.07125 5.01374 8.0897 5.08243C8.10423 5.13966 8.09552 5.19017 8.11101 5.24167C8.14787 5.36087 8.15854 5.52874 8.17792 5.63648C8.18665 5.68226 8.18083 5.74233 8.18956 5.79477C8.20023 5.85007 8.24387 5.92162 8.25549 5.97977C8.26809 6.05988 8.26714 6.16289 8.27974 6.24871C8.29523 6.32117 8.31755 6.3908 8.33598 6.45948C8.35245 6.51767 8.33987 6.57392 8.35829 6.62826C8.3767 6.6845 8.40677 6.73981 8.41842 6.80277C8.42716 6.86955 8.41744 6.96967 8.432 7.02877C8.51927 7.36541 8.54545 7.76595 8.64534 8.08924C8.65795 8.13501 8.66086 8.18557 8.67153 8.23226C8.75493 8.51456 8.81892 8.81684 8.90523 9.09723C8.9159 9.14204 8.91494 9.18589 8.92561 9.23549C8.95471 9.33373 8.98087 9.4396 9.00123 9.54068C9.01094 9.58453 9.01094 9.6284 9.02257 9.67228C9.0536 9.77622 9.09045 9.8754 9.12439 9.97744C9.137 10.028 9.14184 10.0766 9.15058 10.1262C9.15931 10.1653 9.18161 10.2091 9.19325 10.2463C9.2107 10.3055 9.20488 10.3627 9.22524 10.4171C9.23784 10.4476 9.26209 10.4829 9.27178 10.5172C9.28439 10.5773 9.29214 10.6364 9.30959 10.6955C9.33384 10.7671 9.37263 10.8367 9.40268 10.9072C9.42402 10.9654 9.42402 11.0245 9.44729 11.0808C9.48801 11.181 9.53069 11.2982 9.57046 11.4041C9.60342 11.4909 9.60729 11.5786 9.63834 11.6673C9.65968 11.7245 9.6878 11.7855 9.70913 11.8418C9.72174 11.8866 9.72949 11.9333 9.74596 11.9782C9.75955 12.0211 9.80707 12.0878 9.8381 12.1441C9.8633 12.2032 9.85166 12.2881 9.87204 12.353C9.89338 12.4216 9.93119 12.476 9.95446 12.538C9.9758 12.6009 9.97484 12.6686 9.99131 12.7334C10.0107 12.783 10.0456 12.8317 10.066 12.8774C10.0863 12.9318 10.1067 12.9862 10.1271 13.0405C10.1426 13.0758 10.1736 13.1111 10.1901 13.1464C10.2192 13.2093 10.2444 13.277 10.2716 13.3409C10.3084 13.4344 10.3123 13.5469 10.3404 13.6527C10.3482 13.6823 10.3482 13.7557 10.3278 13.7634C10.2851 13.7719 10.2367 13.7042 10.2076 13.6623C10.1571 13.5926 10.1087 13.5145 10.0708 13.4306C10.0582 13.3972 10.0505 13.3657 10.0398 13.3352C10.0117 13.2646 9.99036 13.1855 9.9574 13.113C9.93704 13.0701 9.90889 13.0224 9.89436 12.9747C9.87013 12.908 9.8808 12.8278 9.85459 12.7706C9.83132 12.721 9.79155 12.682 9.76828 12.6323C9.75181 12.5875 9.74405 12.5408 9.72369 12.495C9.69944 12.4407 9.66648 12.393 9.63545 12.3415C9.61218 12.2919 9.61509 12.2423 9.59764 12.1832C9.57826 12.1136 9.5569 12.0449 9.52687 11.9829C9.49584 11.919 9.45803 11.8532 9.42989 11.7865C9.41633 11.7503 9.40855 11.7121 9.39791 11.6759C9.38046 11.6263 9.35425 11.5729 9.33391 11.5223C9.32227 11.4861 9.31258 11.447 9.29802 11.4127C9.27281 11.3574 9.24472 11.2982 9.22144 11.2381C9.20495 11.1886 9.20204 11.138 9.18459 11.0894C9.15258 11.0045 9.12446 10.9091 9.09537 10.8271C9.07599 10.7613 9.06918 10.6955 9.05076 10.6316C9.02651 10.5544 8.99161 10.48 8.96156 10.4037C8.9412 10.3427 8.93731 10.2769 8.9179 10.2139C8.88883 10.1319 8.84618 10.0566 8.81901 9.96981C8.80254 9.90305 8.79863 9.83439 8.78507 9.77049C8.73659 9.61127 8.68423 9.4358 8.63379 9.27366C8.5756 9.09247 8.5698 8.88745 8.51645 8.70435C8.47962 8.57369 8.4321 8.4478 8.3904 8.31907C8.37586 8.25231 8.3739 8.1894 8.35646 8.1236C8.32058 7.97959 8.26533 7.7898 8.21778 7.63818C8.19159 7.55903 8.19935 7.47797 8.17608 7.39025C8.15281 7.30633 8.14989 7.20239 8.12276 7.11084C8.10531 7.05459 8.08201 7.01452 8.06943 6.94206C8.05585 6.8696 8.05585 6.78565 8.04518 6.73131C8.03549 6.67791 7.93949 6.35746 7.92882 6.29739C7.91815 6.2392 7.91913 6.13146 7.91039 6.09333C7.9065 6.06662 7.85609 5.92836 7.85125 5.89402C7.84349 5.85683 7.84349 5.81486 7.82893 5.74432C7.81439 5.67374 7.77269 5.51639 7.76589 5.47158C7.75813 5.42484 7.75813 5.33233 7.7494 5.28559C7.73971 5.24078 7.7077 5.13494 7.68638 5.05862C7.66213 4.969 7.68154 4.87078 7.65535 4.78496C7.63695 4.72201 7.61365 4.66003 7.59136 4.59806C7.57585 4.5456 7.55646 4.4741 7.55453 4.44166C7.55066 4.39302 7.5458 4.29194 7.54386 4.25569C7.54288 4.20325 7.52059 4.11647 7.51477 4.04208C7.50894 3.93908 7.48569 3.82938 7.47015 3.76743C7.46046 3.72929 7.46338 3.68544 7.45562 3.65014C7.42946 3.54997 7.40423 3.45655 7.35188 3.46324C7.31503 3.46988 7.30047 3.49946 7.31696 3.56528C7.33637 3.64347 7.34413 3.70546 7.36449 3.78173C7.37418 3.8237 7.37611 3.92767 7.37709 3.96103C7.38 4.01633 7.38289 4.02875 7.39065 4.08213C7.39258 4.10314 7.4023 4.15368 7.40907 4.17654C7.41781 4.21276 7.42946 4.26332 7.42846 4.28907C7.4265 4.32532 7.42554 4.36346 7.42554 4.41398C7.42554 4.43973 7.42846 4.44928 7.43912 4.49506C7.44882 4.53987 7.45366 4.54846 7.45755 4.58565C7.45949 4.61806 7.45559 4.64858 7.45853 4.67621C7.45951 4.71245 7.46242 4.74677 7.47307 4.77921C7.49441 4.84501 7.53997 4.93752 7.52059 5.0367C7.50023 5.14066 7.53319 5.24172 7.55646 5.33233C7.56809 5.39052 7.55646 5.4563 7.56809 5.51066C7.59041 5.58885 7.60979 5.67181 7.63113 5.75289C7.64953 5.81963 7.63597 5.88066 7.65342 5.94362C7.67865 6.0323 7.74071 6.1515 7.74942 6.19155C7.75527 6.2316 7.75429 6.33936 7.76689 6.40803C7.77852 6.47669 7.79501 6.55488 7.79986 6.59779C7.80568 6.64164 7.79792 6.66075 7.80179 6.6922C7.80859 6.72462 7.8532 6.87913 7.85998 6.91917C7.86676 6.96018 7.86578 6.97924 7.87354 7.02218C7.88228 7.06412 7.91815 7.22908 7.92491 7.28344C7.93462 7.33588 7.93171 7.36835 7.94042 7.42175C7.95787 7.50469 7.99086 7.57337 8.0083 7.6525C8.01993 7.71069 8.01606 7.74691 8.0238 7.79464C8.04127 7.86806 8.06647 7.93579 8.08003 8.00632C8.0907 8.06069 8.0907 8.11506 8.10235 8.17034C8.12755 8.28954 8.145 8.41066 8.17701 8.52794C8.19835 8.59759 8.24005 8.66242 8.26041 8.73012C8.27881 8.79115 8.28368 8.85789 8.30017 8.91892C8.31664 8.97233 8.35448 9.02101 8.36803 9.07629C8.37775 9.12683 8.37677 9.17451 8.3845 9.22507C8.39808 9.28035 8.42231 9.33664 8.43398 9.39385C8.4427 9.43674 8.43883 9.48061 8.44947 9.52641C8.46597 9.57502 8.49117 9.61887 8.50282 9.66847C8.51542 9.72953 8.51542 9.79054 8.52996 9.85157C8.54839 9.9231 8.57939 9.99272 8.60173 10.0576C8.62305 10.1195 8.61142 10.1863 8.63081 10.254C8.67153 10.398 8.72 10.5573 8.76946 10.6917C8.78985 10.7651 8.78593 10.8395 8.81407 10.9187C8.83345 10.9711 8.85675 11.0064 8.87807 11.0503C8.89453 11.0989 8.88002 11.1504 8.89358 11.2038C8.91781 11.2896 8.93237 11.4079 8.96242 11.4937C8.99829 11.591 9.05551 11.6701 9.09043 11.7636C9.12434 11.8628 9.1263 11.961 9.16024 12.064C9.19225 12.1508 9.23782 12.2318 9.27078 12.3119C9.29988 12.3825 9.28823 12.475 9.31637 12.5494C9.34642 12.6304 9.40652 12.6934 9.4366 12.7763C9.47247 12.8717 9.49577 12.9661 9.52678 13.0624C9.53551 13.1025 9.54422 13.1425 9.55198 13.1835C9.58786 13.3066 9.65574 13.4086 9.69937 13.5268C9.71584 13.5822 9.72071 13.6289 9.73525 13.6794C9.76726 13.7643 9.80215 13.852 9.84096 13.9331C9.87586 14.0056 9.92338 14.0771 9.95635 14.1496C9.98737 14.2173 9.9932 14.2869 10.0232 14.3565C10.0504 14.4233 10.0834 14.4967 10.1105 14.5673C10.126 14.6102 10.128 14.6483 10.1464 14.6884C10.2308 14.8763 10.3364 15.0651 10.4237 15.2501C10.4712 15.3502 10.4926 15.4589 10.542 15.5609C10.5799 15.6411 10.6264 15.7173 10.6623 15.8041C10.6855 15.8585 10.6923 15.91 10.7166 15.9624C10.7641 16.0616 10.83 16.1646 10.8776 16.2638C10.8892 16.2886 10.9241 16.3953 10.9096 16.4373C10.9096 16.4431 10.9067 16.4497 10.8999 16.4535C10.8679 16.4621 10.8048 16.4078 10.7689 16.3725C10.6468 16.2571 10.6274 16.0339 10.542 15.8823C10.5178 15.8394 10.4897 15.7908 10.4674 15.744C10.4567 15.7126 10.449 15.682 10.4325 15.6497C10.3801 15.5504 10.3152 15.4618 10.2676 15.3588C10.2327 15.2834 10.2289 15.1976 10.1949 15.127C10.0553 14.8324 9.89531 14.5492 9.76246 14.2535C9.7004 14.1191 9.6878 13.9665 9.63543 13.8215C9.60246 13.7348 9.5501 13.6632 9.51422 13.5831C9.48319 13.5192 9.47641 13.4534 9.44827 13.3876C9.4085 13.3037 9.3542 13.2265 9.32124 13.134C9.2999 13.0758 9.29214 13.0148 9.26887 12.9566C9.24269 12.8908 9.19712 12.8383 9.16803 12.7754C9.12728 12.6829 9.1205 12.5913 9.08947 12.4845C9.073 12.4283 9.04875 12.3682 9.02935 12.3148C9.01481 12.2671 9.00801 12.2156 8.99154 12.1679C8.94984 12.0573 8.88293 11.96 8.84124 11.8456C8.81312 11.7683 8.81796 11.672 8.785 11.5967C8.75784 11.5366 8.70743 11.4861 8.6822 11.4231C8.65506 11.3563 8.68026 11.2763 8.65797 11.1961C8.63759 11.1208 8.60658 11.0502 8.5804 10.9797C8.56681 10.9358 8.56295 10.891 8.55032 10.8481C8.51542 10.7565 8.48246 10.665 8.44754 10.5734C8.43203 10.5267 8.43203 10.4838 8.41167 10.4418C8.38646 10.3875 8.34574 10.336 8.32633 10.2778C8.30208 10.1891 8.2953 10.0947 8.27301 10.0079C8.23714 9.89256 8.19252 9.79812 8.15861 9.68659C8.14987 9.64941 8.14987 9.61603 8.14018 9.57502C8.11302 9.47678 8.09753 9.36425 8.07036 9.26411C8.05872 9.21646 8.06165 9.17449 8.05 9.12777C8.02186 9.03334 7.9889 8.93702 7.95983 8.84834C7.94431 8.79017 7.94042 8.7301 7.92684 8.67477C7.87934 8.52602 7.83764 8.35245 7.79208 8.20942C7.78045 8.16745 7.78432 8.13024 7.77171 8.08259C7.73584 7.97006 7.68832 7.83464 7.66311 7.71924C7.64953 7.65154 7.64953 7.58572 7.63497 7.52278C7.61657 7.44459 7.58938 7.36924 7.57193 7.29201C7.56709 7.25483 7.57193 7.22621 7.56804 7.19666C7.56222 7.14518 7.55642 7.09366 7.54768 7.04314C7.49629 6.84098 7.41483 6.58824 7.36828 6.38418C7.35568 6.31075 7.35277 6.2354 7.34501 6.16293C7.33725 6.11239 7.33336 6.0523 7.31883 5.99986C7.30331 5.94552 7.2781 5.89019 7.27035 5.83582C7.25774 5.74716 7.25774 5.66132 7.24416 5.5774C7.24318 5.57073 7.24125 5.56409 7.24027 5.55738C7.22187 5.45247 7.16757 5.23888 7.15592 5.15395C7.14236 5.0529 7.12974 4.95085 7.11811 4.84975C7.11424 4.78492 7.10358 4.71625 7.09388 4.64665C7.08033 4.54175 7.05412 4.44926 7.04152 4.34053C7.03376 4.26807 7.03763 4.20321 7.02796 4.14124C7.02309 4.10309 7.02213 4.03537 6.97268 4.03537C6.92322 4.03537 6.93 4.0926 6.92711 4.13743C6.92031 4.2471 6.94165 4.38917 6.94941 4.45783C6.96588 4.58273 6.95425 4.70672 6.96781 4.83355C6.97559 4.9051 6.99886 4.97757 7.0066 5.04529C7.02404 5.16449 7.03665 5.28749 7.05216 5.40289C7.05314 5.40477 7.05314 5.4067 7.05314 5.40956C7.05799 5.4639 7.06476 5.51733 7.07445 5.56878C7.07445 5.57453 7.07641 5.57834 7.07641 5.58407C7.07739 5.58691 7.07739 5.58881 7.07835 5.59169C7.0803 5.5955 7.0803 5.59737 7.0803 5.60026L7.08126 5.6012C7.0861 5.62411 7.09095 5.64698 7.09773 5.67085C7.11131 5.71658 7.10551 5.75474 7.11907 5.80338C7.15687 5.94169 7.14816 6.09331 7.18695 6.22967C7.24414 6.43089 7.27421 6.65594 7.33238 6.85619C7.34885 6.91629 7.33238 6.97443 7.34983 7.03643C7.36535 7.10035 7.38279 7.16232 7.39831 7.22621C7.41478 7.3044 7.4022 7.37976 7.42351 7.45795C7.44194 7.52853 7.46328 7.60196 7.48462 7.66964C7.50596 7.75166 7.50789 7.83844 7.53021 7.92809C7.55639 8.01773 7.58838 8.11691 7.60487 8.20846C7.62425 8.31144 7.63397 8.4316 7.65332 8.53937C7.67178 8.6309 7.72219 8.74153 7.74448 8.84071C7.7503 8.87409 7.74644 8.90651 7.75322 8.94181C7.7668 9.0124 7.78909 9.0839 7.80363 9.15256C7.81236 9.1831 7.80945 9.21172 7.81816 9.247C7.85308 9.37859 7.8938 9.54263 7.9355 9.67422C7.94715 9.71044 7.95197 9.74763 7.95975 9.78483C7.98689 9.87732 8.01501 9.94596 8.02568 9.99655C8.0354 10.0404 8.04022 10.0909 8.05186 10.1396C8.07125 10.2102 8.09452 10.2731 8.1081 10.3341C8.11779 10.3818 8.12653 10.4266 8.14008 10.4753C8.1556 10.5344 8.18083 10.5887 8.20506 10.645C8.24482 10.7642 8.24967 10.8891 8.29234 11.0036C8.31755 11.0722 8.35149 11.139 8.37476 11.2105C8.39317 11.2782 8.39804 11.3574 8.41938 11.4308C8.45914 11.5462 8.50277 11.6759 8.54543 11.7903C8.59488 11.9257 8.62398 12.0745 8.67148 12.2023C8.69086 12.2547 8.68795 12.3043 8.70444 12.3615C8.74323 12.4893 8.78784 12.6323 8.83049 12.7611C8.85377 12.8307 8.85472 12.8965 8.88091 12.9623C8.92552 13.071 8.99046 13.1626 9.03121 13.2741C9.0661 13.3704 9.07389 13.4648 9.11072 13.5535C9.15919 13.6727 9.21641 13.7929 9.262 13.9197C9.29398 14.0046 9.3037 14.0904 9.3415 14.1715C9.37253 14.2411 9.41325 14.3126 9.44526 14.3832C9.4666 14.4443 9.4889 14.5062 9.51023 14.5682C9.52768 14.615 9.57812 14.6951 9.61304 14.758C9.65183 14.8429 9.65958 14.9354 9.69255 15.0279C9.74394 15.1681 9.81375 15.3101 9.87388 15.4398C9.8962 15.4904 9.90104 15.5381 9.9214 15.5934C9.9563 15.6868 10.0174 15.7555 10.0581 15.8413C10.096 15.9243 10.1066 16.0092 10.1425 16.0893C10.1968 16.2065 10.2375 16.2657 10.2366 16.4326C10.2356 16.4469 10.2307 16.4583 10.2143 16.4641C10.1832 16.4765 10.1474 16.424 10.127 16.4059C10.0368 16.3191 10.0232 16.2342 9.96699 16.1141C9.8807 15.9309 9.77014 15.7593 9.68481 15.581C9.64022 15.4866 9.62371 15.3874 9.57814 15.2892C9.55196 15.2319 9.51415 15.1728 9.48701 15.1166C9.44724 15.0317 9.42591 14.9449 9.38227 14.8676C9.31924 14.757 9.26882 14.6274 9.21937 14.5024C9.19999 14.4557 9.19707 14.4109 9.17767 14.366C9.15537 14.3183 9.11948 14.2735 9.09718 14.2277C9.0652 14.1505 9.04386 14.058 9.01378 13.9798C8.94399 13.832 8.86642 13.6756 8.80918 13.5192C8.75586 13.3761 8.73065 13.2388 8.6773 13.0929C8.65599 13.0328 8.62594 12.968 8.60558 12.9079C8.5862 12.8536 8.58519 12.8059 8.56872 12.7544C8.51929 12.6228 8.45625 12.4845 8.39906 12.3587C8.37092 12.2957 8.36319 12.2337 8.33891 12.1679C8.30886 12.0878 8.27394 12.0001 8.24487 11.9209C8.2051 11.8151 8.20317 11.693 8.16245 11.5824C8.07614 11.3459 7.96365 11.0989 7.89094 10.8481C7.8764 10.7919 7.88027 10.7327 7.8628 10.6745C7.82303 10.5506 7.78038 10.4104 7.74257 10.2778C7.69796 10.131 7.70281 9.97363 7.65722 9.83058C7.59709 9.6427 7.53021 9.44911 7.47008 9.26505C7.45168 9.20977 7.46039 9.15157 7.44197 9.09054C7.40222 8.94843 7.35277 8.78062 7.30427 8.64803C7.28004 8.58224 7.28004 8.50881 7.25483 8.44778C7.22476 8.37245 7.14623 8.39916 7.15301 8.48402C7.15883 8.56034 7.18499 8.66045 7.19373 8.7005C7.20246 8.75388 7.20246 8.80731 7.21507 8.86357C7.23834 8.96369 7.2713 9.04667 7.29944 9.13629C7.32949 9.23164 7.32949 9.32038 7.35761 9.41667C7.37119 9.46528 7.39155 9.51967 7.40611 9.56542C7.43712 9.66176 7.43712 9.76664 7.46915 9.85441C7.49534 9.92305 7.51472 10.007 7.53701 10.0814C7.55059 10.1309 7.54768 10.171 7.56417 10.2187C7.59131 10.3064 7.61945 10.3951 7.64855 10.4829C7.66115 10.5334 7.65533 10.5792 7.66793 10.6249C7.68731 10.6945 7.70285 10.7671 7.72321 10.8319C7.74259 10.8948 7.74066 10.9806 7.76298 11.0474C7.80177 11.1685 7.84736 11.2982 7.88903 11.4117C7.93558 11.5385 7.94042 11.6721 7.98794 11.8017C8.07134 12.0306 8.14989 12.2938 8.23422 12.5255C8.25556 12.5847 8.24683 12.6447 8.26721 12.7106C8.29533 12.8097 8.31667 12.908 8.35156 13.0062C8.36901 13.0529 8.40004 13.0996 8.42138 13.1426C8.44756 13.1998 8.45532 13.2598 8.48053 13.318C8.50089 13.3638 8.53192 13.4105 8.55034 13.4602C8.57751 13.5336 8.56681 13.6232 8.59689 13.6928C8.61823 13.7481 8.65021 13.8082 8.67155 13.8664C8.69482 13.9303 8.69482 13.998 8.72101 14.0562C8.74428 14.1086 8.78309 14.1591 8.80732 14.2106C8.82963 14.2593 8.83544 14.3089 8.85482 14.3632C8.8752 14.4185 8.90719 14.4767 8.9295 14.5273C8.95762 14.5845 8.9586 14.6522 8.98574 14.7123C9.00901 14.7637 9.04586 14.8143 9.06622 14.8696C9.08563 14.9297 9.08854 14.9945 9.1089 15.0546C9.14573 15.1443 9.20197 15.2224 9.24173 15.3093C9.27083 15.3712 9.27276 15.4447 9.30284 15.5095C9.3358 15.5848 9.38335 15.6573 9.41822 15.7307C9.46283 15.829 9.49871 15.9329 9.5404 16.0273C9.61605 16.1942 9.64125 16.3764 9.71883 16.5394C9.77702 16.6605 9.85361 16.7759 9.90887 16.8941C9.93894 16.96 9.94864 17.0306 9.97967 17.0944C10.0155 17.1659 10.0747 17.2279 10.1096 17.3004C10.1367 17.3729 10.1571 17.4463 10.1881 17.5169C10.2308 17.6103 10.2939 17.6924 10.3355 17.781C10.3598 17.8325 10.3704 17.8831 10.3947 17.9346C10.4412 18.0338 10.5188 18.1177 10.5653 18.2149C10.5896 18.2807 10.6129 18.3456 10.6371 18.4114C10.6865 18.5153 10.767 18.605 10.8194 18.7108C10.8563 18.79 10.8824 18.8729 10.929 18.9454C11.0027 19.057 11.0483 19.1314 11.12 19.2439C11.1665 19.3183 11.2267 19.426 11.2645 19.5052C11.3023 19.5843 11.3634 19.6502 11.4002 19.7284C11.4371 19.8037 11.4866 19.8866 11.5273 19.9582C11.5728 20.0402 11.6223 20.1012 11.6737 20.1775C11.7581 20.3024 11.8114 20.4369 11.8948 20.5647C11.952 20.6514 12.0189 20.744 12.0819 20.8288C12.2506 21.0558 12.494 21.4649 12.5988 21.6013C12.6831 21.7129 12.7549 21.8454 12.8334 21.9627C12.8945 22.0533 12.9702 22.142 13.0361 22.2249C13.0914 22.2955 13.135 22.3709 13.1883 22.4443L13.23 22.4986C15.3972 25.205 17.6226 26.9998 19.5087 28.1747H19.5067C20.5006 28.785 21.0359 28.9652 21.0359 28.9652C21.1629 29.0158 21.0757 29.1054 21.0117 29.1455L9.83421 36.1747C9.79929 36.1976 9.71202 36.2614 9.74596 36.3301C9.77313 36.3835 9.88753 36.352 9.91761 36.3425C18.8881 33.247 25.3966 30.6998 29.3761 28.8422C33.4107 26.9596 34.7674 25.8839 34.618 25.3479M10.7572 14.9515C10.7349 14.9114 10.7087 14.8637 10.6922 14.8189C10.6738 14.7703 10.6709 14.7236 10.6495 14.6768C10.5788 14.5223 10.5012 14.3526 10.4295 14.2C10.3994 14.1371 10.3596 14.0188 10.3878 13.9377C10.3926 13.9253 10.4159 13.9339 10.4256 13.9435C10.4498 13.9654 10.4663 13.9778 10.4867 14.0007C10.5022 14.0236 10.506 14.0474 10.5206 14.0703C10.5565 14.1228 10.6011 14.1752 10.6282 14.2343C10.6874 14.3573 10.7029 14.4985 10.761 14.6196C10.7998 14.7007 10.8629 14.7703 10.9036 14.8523C10.923 14.8952 10.9365 14.9419 10.9501 14.9896C10.9598 15.0249 10.9579 15.0726 10.9598 15.1003C10.9618 15.1413 10.9569 15.1679 10.9404 15.1689C10.8299 15.1622 10.7989 15.0297 10.7572 14.9515M11.2226 18.3178C11.2197 18.3292 11.2091 18.3445 11.1916 18.3464C11.0723 18.3426 11.0355 18.1662 10.9841 18.087C10.9414 18.0202 10.9036 17.9478 10.859 17.881C10.828 17.8333 10.7883 17.7847 10.762 17.7322C10.7301 17.6636 10.7155 17.5921 10.6748 17.532C10.6544 17.4996 10.6205 17.4719 10.5972 17.4414C10.5332 17.3556 10.4721 17.264 10.4314 17.1553C10.4217 17.1172 10.411 17.078 10.4004 17.039C10.3771 16.9732 10.3461 16.9026 10.3228 16.833C10.3131 16.7996 10.3063 16.7262 10.3131 16.7023C10.317 16.6909 10.3208 16.6842 10.3296 16.6852C10.4217 16.6995 10.509 16.9188 10.5545 16.9989C10.603 17.0848 10.6816 17.1525 10.7242 17.2421C10.763 17.3212 10.7746 17.4214 10.8192 17.4996C10.8532 17.5597 10.9094 17.6074 10.9473 17.6655C10.9977 17.739 11.0316 17.8362 11.0695 17.9182C11.1121 18.0117 11.1751 18.0832 11.212 18.1728C11.2275 18.211 11.2343 18.2758 11.2226 18.3178M13.7331 17.8171C13.6778 17.8133 13.6536 17.778 13.6187 17.7532C13.5256 17.6864 13.449 17.5777 13.4471 17.4204C13.4451 17.4042 13.4519 17.3994 13.4606 17.3994C13.5712 17.3984 13.6846 17.5663 13.7273 17.6435C13.7389 17.6683 13.768 17.7303 13.7641 17.7751C13.7632 17.8047 13.7506 17.8171 13.7331 17.8171M14.4885 17.8457C14.4138 17.8734 14.2315 17.6702 14.1811 17.5949C14.0861 17.4547 13.994 17.3012 13.8931 17.1658C13.801 17.0437 13.6992 16.9569 13.6759 16.7471C13.672 16.7214 13.6575 16.6594 13.673 16.6594C13.7748 16.668 13.8718 16.8416 13.9212 16.9083C13.9571 16.9569 13.9988 17.0056 14.0337 17.0571C14.0812 17.1305 14.1026 17.2202 14.154 17.2888C14.217 17.3746 14.2936 17.4538 14.3605 17.5377C14.3973 17.5844 14.4449 17.6245 14.4681 17.6865C14.4788 17.718 14.5098 17.8362 14.4885 17.8457M17.126 19.2847C17.0174 19.2991 16.8952 19.1436 16.8429 19.0711C16.8274 19.0492 16.7663 18.9252 16.7827 18.9062C16.805 18.8881 16.9292 18.9291 16.9631 18.9558C17.0445 19.0197 17.1105 19.1074 17.1483 19.26C17.1512 19.2771 17.1357 19.2838 17.126 19.2847" fill="white"/>
<mask id="mask0_217_215" style="mask-type:luminance" maskUnits="userSpaceOnUse" x="6" y="3" width="29" height="34">
<path fill-rule="evenodd" clip-rule="evenodd" d="M34.618 25.3479C34.4793 24.8454 32.9812 25.06 31.7488 24.9503C30.6278 24.8492 29.1888 24.6518 27.4589 24.0606C25.8424 23.5094 24.2774 22.8771 22.9121 22.1514C22.9121 22.1514 22.3603 21.8653 22.3021 21.832C22.1887 21.7642 22.0975 21.7156 21.9879 21.6479C21.9191 21.6078 21.8192 21.5496 21.7426 21.5172C21.6486 21.4772 21.5836 21.4267 21.5012 21.3761C21.4168 21.3256 21.3024 21.2712 21.2171 21.2216C21.091 21.1434 21.0134 21.0852 20.8952 21.0013C20.8214 20.9489 20.7846 20.9336 20.6867 20.8745C20.6285 20.8392 20.5209 20.7839 20.4685 20.7486C20.3589 20.6771 20.2891 20.618 20.1795 20.5436C20.1126 20.4969 20.0632 20.4673 19.9827 20.4196C19.9032 20.371 19.8285 20.3109 19.7587 20.2604C19.7209 20.2318 19.6637 20.1993 19.6288 20.1641C19.5483 20.0887 19.4688 20.0201 19.3854 19.9533C19.3078 19.8961 19.236 19.8265 19.1595 19.7721C19.1119 19.7359 19.0295 19.6672 18.982 19.6338C18.8579 19.5451 18.7803 19.4812 18.6581 19.3925C18.5786 19.3353 18.5117 19.26 18.4332 19.2028C18.3449 19.1369 18.2635 19.0645 18.1723 19.0006C18.1141 18.9596 18.0462 18.9072 18.0016 18.8614C17.9425 18.7927 17.8863 18.746 17.8261 18.6764C17.7815 18.6277 17.6923 18.5743 17.6429 18.5228C17.5672 18.4284 17.4606 18.3283 17.3588 18.253C17.2996 18.1986 17.2802 18.1728 17.2579 18.1442C17.2405 18.1194 17.2181 18.0908 17.1697 18.0412C17.1202 17.9926 17.1047 17.9783 17.0824 17.9583C17.062 17.9382 17.0359 17.9144 16.9699 17.8515C16.9486 17.8305 16.9137 17.7828 16.8788 17.7361C16.8477 17.6951 16.8196 17.656 16.7993 17.634C16.7401 17.5711 16.6994 17.5282 16.6577 17.4834C16.6266 17.4528 16.5956 17.4195 16.5549 17.3784C16.5326 17.3527 16.5122 17.3241 16.4938 17.2964C16.4754 17.2678 16.456 17.2402 16.4337 17.2173C16.3978 17.1772 16.3716 17.1906 16.3629 17.1953C16.3406 17.2106 16.3338 17.2526 16.358 17.3022C16.3881 17.3603 16.4346 17.4252 16.4637 17.4643C16.4696 17.4729 16.4744 17.4795 16.4783 17.4843C16.4899 17.5024 16.4996 17.5224 16.5103 17.5406C16.5268 17.5682 16.5432 17.5968 16.5636 17.6244C16.6102 17.6845 16.6596 17.7351 16.7071 17.7846C16.7226 17.799 16.7401 17.8161 16.7537 17.8323C16.7866 17.8667 16.8119 17.901 16.8371 17.9382C16.8642 17.9754 16.8914 18.0154 16.9272 18.0526C16.9447 18.0688 16.9573 18.0889 16.9709 18.106C16.9864 18.127 17.0029 18.1489 17.0213 18.1661C17.0485 18.1909 17.0756 18.2205 17.1028 18.2472C17.1474 18.2929 17.1949 18.3416 17.2405 18.3788C17.2754 18.4074 17.3103 18.4426 17.3471 18.4789C17.4392 18.5848 17.5372 18.6925 17.6196 18.7946C17.6681 18.8546 17.7524 18.8966 17.8058 18.9366C17.864 18.9796 17.9115 19.0558 17.9571 19.114C17.9929 19.155 18.0715 19.2246 18.1093 19.2666C18.2014 19.3839 18.2635 19.4459 18.3828 19.5327C18.4574 19.5861 18.5137 19.6338 18.5699 19.7043C18.6019 19.7463 18.7076 19.8464 18.7464 19.8931C18.8462 20.019 18.8909 20.1335 18.8773 20.1382C18.8084 20.1544 18.6436 20.0114 18.5457 19.9484C18.4642 19.896 18.4516 19.875 18.3769 19.8188C18.3585 19.8035 18.2383 19.7205 18.1966 19.669C18.1626 19.6395 18.0724 19.5432 18.0443 19.5088C17.9076 19.3382 17.8601 19.3277 17.7021 19.1751C17.5876 19.0654 17.4451 18.9653 17.3326 18.868C17.2996 18.8318 17.2667 18.7965 17.2327 18.7612C17.1949 18.724 17.1483 18.6897 17.1173 18.6544C17.065 18.5895 16.9942 18.4627 16.9311 18.416C16.8642 18.3683 16.8177 18.3216 16.7508 18.2739C16.7275 18.2577 16.7052 18.2272 16.6819 18.209C16.6499 18.1861 16.6131 18.1594 16.5879 18.1299C16.5113 18.0326 16.4356 17.9353 16.358 17.838C16.3222 17.7913 16.2718 17.7532 16.2359 17.7055C16.1602 17.6035 16.0982 17.4967 16.0225 17.3984C15.9159 17.2621 15.7636 17.1648 15.6608 17.0275C15.5561 16.8854 15.4921 16.7204 15.3932 16.5726C15.3496 16.5087 15.2827 16.4629 15.2371 16.4019C15.209 16.3657 15.1954 16.3247 15.1692 16.2856C15.1169 16.2064 15.0538 16.1292 15.0005 16.0529C14.9287 15.9518 14.8812 15.8412 14.8114 15.7353C14.7998 15.7201 14.7765 15.6476 14.7329 15.5942C14.6902 15.5417 14.6534 15.4826 14.6049 15.4073C14.5574 15.3319 14.5331 15.2823 14.4992 15.2299C14.4633 15.1784 14.441 15.1297 14.4177 15.0925C14.3954 15.0563 14.3441 14.9886 14.3266 14.9619C14.2626 14.8637 14.2451 14.8189 14.1763 14.7292C14.1365 14.6749 14.0919 14.6281 14.0551 14.6415C14.025 14.6625 14.0357 14.6968 14.0425 14.7206C14.0725 14.8007 14.0725 14.7865 14.1036 14.8436C14.1569 14.939 14.1763 14.9848 14.2335 15.0716C14.2597 15.1135 14.3052 15.2089 14.3431 15.2623C14.3799 15.3157 14.4177 15.3767 14.4429 15.4216C14.4682 15.4673 14.5099 15.5884 14.5496 15.639C14.5787 15.6752 14.6185 15.7506 14.6456 15.8039C14.7019 15.9127 14.7717 15.9975 14.8289 16.0843C14.8686 16.1539 14.9065 16.2236 14.9443 16.2951C15.0199 16.4067 15.1101 16.5135 15.1857 16.6279C15.2332 16.7099 15.2778 16.79 15.3224 16.872C15.368 16.9378 15.4291 16.9941 15.4737 17.0618C15.528 17.1438 15.5581 17.2325 15.6114 17.3107C15.6541 17.3746 15.7094 17.4337 15.752 17.4957C15.8247 17.6035 15.8897 17.7065 15.9663 17.8085C16.009 17.8638 16.0643 17.9115 16.106 17.9687C16.1642 18.044 16.2098 18.1356 16.2708 18.2004C16.3416 18.2672 16.362 18.3063 16.4182 18.3711C16.5026 18.4684 16.7101 18.7583 16.6752 18.7612C16.553 18.7764 16.3184 18.5132 16.2185 18.4198C16.1409 18.3444 16.0565 18.291 16.0022 18.2195C15.9247 18.1155 15.8665 17.9982 15.787 17.8962C15.7588 17.86 15.7162 17.8314 15.6871 17.7961C15.6328 17.7265 15.5833 17.6549 15.5203 17.5939C15.4951 17.5691 15.466 17.5482 15.4417 17.5205C15.3467 17.3984 15.2653 17.2697 15.1712 17.1448C15.1324 17.0933 15.082 17.0465 15.0442 16.9951C15.0132 16.9559 14.9967 16.9111 14.9695 16.8682C14.9317 16.811 14.8842 16.7557 14.8454 16.6994C14.8173 16.6575 14.7998 16.6146 14.7717 16.5726C14.7213 16.4973 14.6534 16.4315 14.603 16.3542C14.5613 16.2932 14.5507 16.2112 14.5099 16.1492C14.4071 15.9919 14.2918 15.8307 14.188 15.6733C14.1618 15.6324 14.1511 15.5875 14.1259 15.5456C14.0425 15.4178 13.964 15.2767 13.8806 15.1498C13.8505 15.1012 13.836 15.0478 13.8059 15.002C13.7681 14.9429 13.7099 14.899 13.6711 14.8418C13.643 14.797 13.6314 14.7493 13.6081 14.6987C13.5751 14.6339 13.5334 14.5671 13.4985 14.5042C13.4772 14.4642 13.4656 14.4251 13.4413 14.3869C13.3415 14.2353 13.26 14.0703 13.1776 13.9006C13.1349 13.8128 13.0719 13.7299 13.0292 13.6411C12.9807 13.5429 12.9361 13.4418 12.8906 13.3465C12.8663 13.2797 12.843 13.2149 12.8198 13.15C12.7703 13.047 12.6966 12.9603 12.6481 12.8535C12.6152 12.7819 12.5996 12.7142 12.5677 12.6542C12.5502 12.617 12.5134 12.5874 12.4871 12.6036C12.461 12.6189 12.4571 12.6523 12.4736 12.7085C12.5046 12.8153 12.5667 12.9393 12.5948 13.0013C12.651 13.1234 12.6801 13.2511 12.7364 13.3751C12.7674 13.4447 12.813 13.5106 12.844 13.5773C12.9003 13.6936 12.9536 13.8138 13.0069 13.9263C13.0389 13.9921 13.0632 14.0551 13.1 14.1171C13.1184 14.1495 13.1466 14.1847 13.163 14.2219C13.1979 14.3001 13.2086 14.3841 13.2455 14.4594C13.2843 14.5385 13.3444 14.6044 13.3822 14.6816C13.5723 15.0793 13.7642 15.4597 13.9941 15.8126C14.059 15.9118 14.092 16.0329 14.156 16.1302C14.2229 16.2322 14.3141 16.3104 14.38 16.4115C14.4353 16.4935 14.4479 16.6079 14.4983 16.6966C14.572 16.8311 14.6699 16.9426 14.7514 17.0676C14.7737 17.1019 14.7815 17.142 14.8037 17.1782C14.8338 17.2268 14.8726 17.2736 14.9066 17.3213C14.9473 17.3861 14.9676 17.4614 15.0142 17.5225C15.0627 17.5873 15.1325 17.6426 15.181 17.7084C15.2411 17.7904 15.2828 17.8839 15.3458 17.9669C15.3894 18.0251 15.4573 18.0641 15.5009 18.1214C15.5717 18.2119 15.8132 18.5247 15.883 18.6125C15.9906 18.747 16.1797 18.9434 16.2699 19.1208C16.2971 19.1742 16.3931 19.3039 16.3727 19.3287C16.3203 19.362 16.0818 19.1045 16.041 19.0664C15.9412 18.9711 15.8539 18.8423 15.7666 18.7345C15.7472 18.7097 15.5165 18.4885 15.4961 18.4637C15.4738 18.4341 15.4496 18.4027 15.4292 18.3731C15.3662 18.2797 15.3283 18.1671 15.2585 18.0765C15.2295 18.0403 15.1868 18.0126 15.1577 17.9754C15.1053 17.9086 15.0675 17.8286 15.0171 17.759C14.9356 17.6493 14.8309 17.5501 14.7485 17.4414C14.6583 17.3203 14.5963 17.1791 14.5051 17.0599C14.4595 17.0018 14.4013 16.9484 14.3587 16.8854C14.3412 16.8568 14.3325 16.8301 14.3141 16.8006C14.2811 16.7519 14.2375 16.6966 14.2113 16.6422C14.187 16.5917 14.1715 16.544 14.1424 16.5002C14.0474 16.3533 13.9533 16.1998 13.8583 16.0548C13.8166 15.989 13.7923 15.9184 13.7507 15.8536C13.6799 15.7458 13.5907 15.6495 13.5199 15.5408C13.4365 15.413 13.389 15.2566 13.3075 15.1298C13.2513 15.044 13.1873 14.9648 13.132 14.8799C13.0719 14.7884 13.0419 14.6797 12.9876 14.5833C12.942 14.4994 12.876 14.4212 12.8343 14.3354C12.7897 14.2429 12.7577 14.1504 12.7122 14.056C12.687 14.0055 12.6501 13.9549 12.6268 13.9015C12.5977 13.8357 12.59 13.7709 12.5599 13.707C12.4784 13.5286 12.3543 13.3608 12.269 13.1834C12.2079 13.0566 12.1546 12.9259 12.1041 12.7915C12.077 12.719 12.0654 12.6494 12.0324 12.5807C11.9568 12.4177 11.8646 12.246 11.791 12.0839C11.7599 11.9981 11.7279 11.9113 11.695 11.8254C11.6901 11.8006 11.6882 11.7768 11.6775 11.7501C11.6436 11.6748 11.597 11.5994 11.5679 11.5241C11.5388 11.4364 11.5117 11.3486 11.4826 11.2599C11.3663 10.9738 11.2615 10.6506 11.151 10.3521C11.1355 10.2977 11.1335 10.23 11.1122 10.1718C11.057 10.0202 10.9988 9.8676 10.9425 9.71216C10.9096 9.63493 10.8349 9.66167 10.8514 9.74077C10.8746 9.84666 10.8892 9.87237 10.9067 9.95537C10.9163 9.99732 10.9241 10.0393 10.9328 10.0813C10.9445 10.1318 10.9706 10.1861 10.9862 10.2338C11.0153 10.3244 11.0182 10.4169 11.0501 10.5037C11.0938 10.6277 11.1394 10.7459 11.1801 10.8737C11.1937 10.9367 11.2072 10.9996 11.2198 11.0635C11.2373 11.1226 11.2615 11.1836 11.2838 11.238C11.3488 11.3934 11.4099 11.5432 11.4662 11.6967C11.4894 11.7844 11.5117 11.8732 11.535 11.9609C11.5573 12.0105 11.5922 12.061 11.6145 12.1087C11.6339 12.1506 11.6397 12.1907 11.6562 12.2355C11.6969 12.3347 11.7347 12.4367 11.7794 12.5359C11.8181 12.6189 11.8628 12.7028 11.8967 12.7896C11.9112 12.8325 11.9112 12.8687 11.9267 12.9116C12.0247 13.1739 12.1304 13.4476 12.2438 13.6936C12.2729 13.7565 12.2807 13.8204 12.3098 13.8834C12.333 13.9358 12.366 13.9921 12.3903 14.0426C12.4019 14.076 12.4135 14.1094 12.4251 14.1428C12.461 14.2162 12.5211 14.2772 12.556 14.3487C12.654 14.5528 12.7422 14.7464 12.8654 14.92C12.9788 15.0802 13.0283 15.2928 13.1155 15.4855C13.1553 15.5761 13.2115 15.6543 13.2639 15.7344C13.2891 15.7763 13.3066 15.8221 13.3279 15.866C13.3841 15.9661 13.4142 16.0539 13.4811 16.1416C13.5335 16.2141 13.5296 16.2312 13.5742 16.3323C13.5878 16.3619 13.6382 16.5526 13.6285 16.5526C13.6111 16.565 13.515 16.5087 13.4821 16.4725C13.4394 16.4248 13.3706 16.3619 13.323 16.257C13.2998 16.2064 13.2513 16.1158 13.227 16.0662C13.1669 15.9385 13.0651 15.8317 12.9895 15.7163C12.9459 15.6485 12.9216 15.5732 12.8857 15.4998C12.8227 15.3663 12.75 15.2299 12.684 15.0926C12.6569 15.0353 12.6152 14.9791 12.5822 14.9285C12.5473 14.8751 12.5318 14.817 12.495 14.7645C12.4193 14.6482 12.334 14.5166 12.2738 14.3888C12.2292 14.2953 12.206 14.2 12.1623 14.1084C12.1478 14.0798 12.1236 14.0522 12.1041 14.0245C12.0741 13.9768 12.0615 13.9234 12.0353 13.871C12.0014 13.7995 11.951 13.7327 11.916 13.6602C11.8491 13.5143 11.8094 13.3646 11.7386 13.2216C11.7085 13.1538 11.6533 13.0976 11.6203 13.0299C11.5718 12.9278 11.5679 12.8 11.5175 12.6923C11.3895 12.4091 11.2431 12.1182 11.1335 11.8216C11.116 11.772 11.1112 11.7158 11.0957 11.6624C11.0482 11.5346 10.9851 11.4144 10.9376 11.2866C10.9163 11.2304 10.9095 11.177 10.8891 11.1188C10.8571 11.032 10.8154 10.9414 10.7834 10.8546C10.7747 10.8241 10.7718 10.7945 10.7602 10.765C10.7214 10.683 10.6981 10.5857 10.6593 10.5008C10.638 10.457 10.6069 10.4103 10.5895 10.3635C10.5575 10.2786 10.5672 10.1709 10.5361 10.0889C10.4925 9.9668 10.4392 9.83899 10.3965 9.71979C10.3693 9.65113 10.3655 9.58345 10.3403 9.51385C10.3112 9.43373 10.2792 9.34505 10.2501 9.26493C10.2191 9.18197 10.221 9.09425 10.1929 9.00651C10.1735 8.94165 10.1444 8.87299 10.1221 8.81104C10.0794 8.69564 10.063 8.57167 10.0174 8.46294C10.0116 8.44289 10.0048 8.42289 9.99604 8.40381C9.98539 8.37327 9.96599 8.34372 9.93496 8.35327C9.90004 8.36186 9.90102 8.40571 9.90295 8.43529C9.90877 8.51921 9.94174 8.5974 9.96694 8.66796C9.99411 8.74139 10.0077 8.81958 10.029 8.89015C10.0397 8.93404 10.0377 8.98362 10.0494 9.03226C10.0649 9.09996 10.0901 9.16674 10.1105 9.23251C10.126 9.30024 10.1182 9.36507 10.1328 9.41657C10.1774 9.56249 10.2268 9.7265 10.2763 9.86575C10.2976 9.93727 10.3005 10.0202 10.3219 10.0822C10.35 10.1556 10.3771 10.2291 10.4043 10.3034C10.4276 10.3654 10.4334 10.4255 10.4596 10.4837C10.4867 10.5448 10.5187 10.6096 10.542 10.6792C10.5711 10.7688 10.5682 10.8585 10.5992 10.9424C10.6496 11.0798 10.7146 11.2113 10.7631 11.3439C10.7786 11.3916 10.7844 11.4431 10.8019 11.4917C10.8436 11.6071 10.8717 11.7301 10.9143 11.8455C10.9754 12.0105 11.0539 12.1697 11.1131 12.3309C11.1732 12.4911 11.18 12.6837 11.2479 12.8325C11.2838 12.9069 11.3565 12.9507 11.3895 13.0242C11.4108 13.07 11.4059 13.1224 11.4224 13.1768C11.4409 13.2388 11.4709 13.2988 11.4922 13.3561C11.5058 13.4075 11.5204 13.4581 11.5359 13.5087C11.5572 13.5707 11.5999 13.6298 11.628 13.6889C11.6726 13.7852 11.6939 13.8844 11.7492 13.9702C11.7919 14.0331 11.8452 14.0932 11.8801 14.1647C11.9179 14.2448 11.9325 14.3297 11.9684 14.4127C12.0246 14.5347 12.0905 14.6511 12.1361 14.777C12.1797 14.8914 12.1953 15.0154 12.2505 15.1165C12.3068 15.2147 12.3766 15.3062 12.4319 15.4073C12.4668 15.4808 12.5017 15.5551 12.5375 15.6286C12.5666 15.6887 12.6209 15.742 12.6549 15.804C12.6985 15.8784 12.7412 15.9595 12.7761 16.0358C12.8033 16.094 12.8129 16.1492 12.8469 16.1998C12.8973 16.279 12.9342 16.341 12.9856 16.4192C13.0311 16.4888 13.0825 16.5774 13.1145 16.6595C13.1388 16.7224 13.164 16.7872 13.1999 16.8407C13.2377 16.8922 13.2901 16.9399 13.324 16.999C13.357 17.0571 13.4025 17.244 13.3851 17.2536C13.3444 17.2679 13.227 17.1582 13.195 17.1191C13.1029 17.0085 13.0564 16.8607 12.973 16.7424C12.8838 16.6184 12.8256 16.546 12.7567 16.401C12.717 16.3171 12.6453 16.1664 12.5958 16.093C12.5493 16.0224 12.4871 15.9595 12.4503 15.8813C12.4203 15.8164 12.4057 15.7392 12.3776 15.6743C12.333 15.5818 12.2428 15.5208 12.1972 15.4264C12.1468 15.3196 12.1235 15.209 12.0683 15.1079C12.0431 15.0593 12.0062 15.0059 11.9829 14.9553C11.951 14.8914 11.9373 14.8294 11.9073 14.7665C11.8452 14.6359 11.7512 14.5243 11.6901 14.3955C11.6261 14.262 11.5912 14.118 11.5253 13.9836C11.4903 13.9111 11.4302 13.8501 11.3953 13.7767C11.3478 13.6794 11.3245 13.5793 11.277 13.481C11.2489 13.4219 11.2072 13.3637 11.18 13.3065C11.1393 13.2216 11.1257 13.1301 11.085 13.0423C10.9958 12.8449 10.9017 12.637 10.8115 12.4406C10.7786 12.3643 10.7698 12.2832 10.735 12.2079C10.6991 12.1402 10.6661 12.0734 10.6312 12.0067C10.5526 11.8322 10.5245 11.6281 10.446 11.4526C10.4043 11.3639 10.3549 11.2781 10.318 11.1818C10.2618 11.0321 10.2395 10.8776 10.1842 10.724C10.0979 10.4885 10.03 10.2444 9.9447 10.0107C9.91849 9.94016 9.9156 9.87241 9.88942 9.79899C9.86323 9.73035 9.83803 9.6626 9.81282 9.59397C9.79439 9.54059 9.78373 9.45951 9.76821 9.38801C9.70517 9.18965 9.63925 8.99223 9.57427 8.79101C9.56072 8.74334 9.55781 8.65848 9.54227 8.59648C9.53064 8.56214 9.51124 8.5221 9.50057 8.49062C9.48312 8.44487 9.48407 8.40672 9.46858 8.35808C9.42204 8.21313 9.38129 8.04529 9.33477 7.90034C9.32119 7.85266 9.31637 7.78874 9.30181 7.73633C9.23588 7.52938 9.20485 7.27572 9.12048 7.08309C9.10398 7.04685 9.07976 7.00678 9.0429 7.01537C9.00512 7.0249 9.01381 7.06687 9.01868 7.10213C9.02935 7.19654 9.06424 7.27856 9.07978 7.35584C9.08658 7.39016 9.08561 7.43973 9.08947 7.4817C9.0953 7.51696 9.09821 7.56086 9.11081 7.59804C9.14862 7.72011 9.19421 7.866 9.23104 7.98806C9.24364 8.04719 9.233 8.13684 9.24849 8.20454C9.30279 8.40005 9.34253 8.63557 9.41526 8.81108C9.48216 8.97221 9.49381 9.16484 9.54134 9.33937C9.55587 9.41279 9.55974 9.49005 9.57043 9.56537C9.58206 9.63883 9.62376 9.6884 9.647 9.7504C9.6635 9.79521 9.66254 9.83432 9.67803 9.88295C9.7178 10.0069 9.74592 10.1309 9.79342 10.2568C9.82542 10.3445 9.87295 10.4265 9.90395 10.5104C9.91753 10.5505 9.91269 10.5839 9.92333 10.6278C9.94467 10.7126 9.96114 10.8004 9.98637 10.8852C10.0484 11.0569 10.1086 11.2419 10.1706 11.4135C10.2055 11.5089 10.2162 11.6014 10.2501 11.6939C10.3878 12.062 10.5284 12.4311 10.6642 12.7973C10.6865 12.8773 10.7088 12.9593 10.732 13.0395C10.7621 13.1224 10.8115 13.1921 10.8465 13.2664C10.8911 13.3628 10.9047 13.4619 10.9425 13.563C10.9861 13.6803 11.0423 13.7718 11.0879 13.8959C11.1102 13.954 11.1316 14.0189 11.1587 14.0751C11.18 14.118 11.2178 14.1581 11.2382 14.202C11.275 14.2754 11.2818 14.366 11.3148 14.4394C11.3516 14.5128 11.4156 14.5729 11.4583 14.6406C11.4981 14.7045 11.5029 14.7846 11.5349 14.858C11.5853 14.9696 11.6532 15.0726 11.7017 15.1909C11.7221 15.2405 11.7327 15.2843 11.755 15.333C11.7812 15.3883 11.8219 15.4398 11.8481 15.4951C11.8481 15.4951 11.851 15.497 11.852 15.5018C11.8549 15.5103 11.8578 15.5208 11.8617 15.5323C11.8675 15.5552 11.8743 15.5847 11.8821 15.6048C11.8937 15.6362 11.9306 15.6944 11.9451 15.7154C11.9548 15.7278 11.979 15.7564 12.0013 15.7822C12.011 15.7926 12.0197 15.8041 12.0304 15.8174C12.0789 15.8937 12.0847 16.0024 12.1245 16.0864C12.1652 16.1684 12.237 16.2332 12.2767 16.319C12.3097 16.3839 12.3272 16.5441 12.2864 16.5517C12.1157 16.5508 12.1041 16.3181 12.0488 16.196C12.0042 16.1016 11.9344 16.0224 11.883 15.9309C11.8733 15.9138 11.8568 15.8775 11.8452 15.8403C11.8346 15.8079 11.821 15.7736 11.8084 15.7469C11.7861 15.702 11.7861 15.7087 11.7716 15.6773C11.7551 15.6467 11.7095 15.5876 11.693 15.56C11.693 15.5562 11.692 15.5552 11.691 15.5542C11.627 15.4503 11.5844 15.3054 11.5369 15.2367C11.5116 15.1976 11.4777 15.1585 11.4525 15.1194C11.4098 15.0545 11.3885 14.9754 11.3536 14.9039C11.3226 14.8362 11.2712 14.7713 11.2402 14.7027C11.2024 14.6197 11.2004 14.5176 11.1607 14.4337C11.1403 14.3889 11.1025 14.3432 11.0811 14.3002C11.0336 14.2058 11.0055 14.1038 10.958 14.0113C10.9366 13.9655 10.8959 13.9236 10.8736 13.8787C10.8358 13.7986 10.8154 13.7137 10.7747 13.6403C10.6845 13.4839 10.5895 13.3094 10.5148 13.1444C10.4722 13.0462 10.4576 12.947 10.414 12.8535C10.3772 12.7706 10.3267 12.6886 10.2879 12.6104C10.2627 12.556 10.2569 12.5045 10.2346 12.4464C10.1997 12.3529 10.157 12.2575 10.1221 12.166C10.1008 12.1031 10.0853 11.9639 10.0649 11.9085C10.0387 11.8379 10.0019 11.7636 9.97184 11.6959C9.92529 11.5938 9.90978 11.486 9.86419 11.384C9.82929 11.3058 9.78953 11.2229 9.75947 11.1418C9.73427 11.0731 9.72844 11.0102 9.69935 10.9463C9.67801 10.8996 9.64891 10.8423 9.62953 10.7937C9.60819 10.7327 9.59172 10.6345 9.57232 10.5553C9.54325 10.4676 9.50541 10.3837 9.47732 10.2969C9.4618 10.233 9.45987 10.0842 9.44338 10.0442C9.35127 9.77429 9.26398 9.48915 9.17865 9.22021C9.13793 9.09721 9.12048 8.97228 9.0846 8.85019C9.07102 8.80348 9.07007 8.74242 9.05649 8.69285C9.03223 8.61465 8.99927 8.53552 8.97404 8.45637C8.96144 8.40106 8.95175 8.34574 8.94108 8.29236C8.92845 8.23703 8.8984 8.17886 8.87804 8.12262C8.82374 7.96048 8.7966 7.78978 8.74617 7.63243C8.73067 7.56569 8.73067 7.48081 8.7132 7.42168C8.65016 7.22619 8.63563 6.9992 8.57744 6.79323C8.5629 6.7341 8.55416 6.67403 8.54058 6.61967C8.4378 6.23535 8.39319 5.80625 8.27876 5.43716C8.25742 5.3666 8.28459 5.27792 8.26423 5.19973C8.24289 5.11583 8.21866 5.03855 8.19248 4.96322C8.18181 4.92315 8.18181 4.89362 8.1731 4.85736C8.15371 4.79442 8.12557 4.74672 8.09065 4.75245C8.04993 4.76581 8.05769 4.80301 8.05962 4.85642C8.06351 4.94128 8.07125 5.01374 8.0897 5.08243C8.10423 5.13966 8.09552 5.19017 8.11101 5.24167C8.14787 5.36087 8.15854 5.52874 8.17792 5.63648C8.18665 5.68226 8.18083 5.74233 8.18956 5.79477C8.20023 5.85007 8.24387 5.92162 8.25549 5.97977C8.26809 6.05988 8.26714 6.16289 8.27974 6.24871C8.29523 6.32117 8.31755 6.3908 8.33598 6.45948C8.35245 6.51767 8.33987 6.57392 8.35829 6.62826C8.3767 6.6845 8.40677 6.73981 8.41842 6.80277C8.42716 6.86955 8.41744 6.96967 8.432 7.02877C8.51927 7.36541 8.54545 7.76595 8.64534 8.08924C8.65795 8.13501 8.66086 8.18557 8.67153 8.23226C8.75493 8.51456 8.81892 8.81684 8.90523 9.09723C8.9159 9.14204 8.91494 9.18589 8.92561 9.23549C8.95471 9.33373 8.98087 9.4396 9.00123 9.54068C9.01094 9.58453 9.01094 9.6284 9.02257 9.67228C9.0536 9.77622 9.09045 9.8754 9.12439 9.97744C9.137 10.028 9.14184 10.0766 9.15058 10.1262C9.15931 10.1653 9.18161 10.2091 9.19325 10.2463C9.2107 10.3055 9.20488 10.3627 9.22524 10.4171C9.23784 10.4476 9.26209 10.4829 9.27178 10.5172C9.28439 10.5773 9.29214 10.6364 9.30959 10.6955C9.33384 10.7671 9.37263 10.8367 9.40268 10.9072C9.42402 10.9654 9.42402 11.0245 9.44729 11.0808C9.48801 11.181 9.53069 11.2982 9.57046 11.4041C9.60342 11.4909 9.60729 11.5786 9.63834 11.6673C9.65968 11.7245 9.6878 11.7855 9.70913 11.8418C9.72174 11.8866 9.72949 11.9333 9.74596 11.9782C9.75955 12.0211 9.80707 12.0878 9.8381 12.1441C9.8633 12.2032 9.85166 12.2881 9.87204 12.353C9.89338 12.4216 9.93119 12.476 9.95446 12.538C9.9758 12.6009 9.97484 12.6686 9.99131 12.7334C10.0107 12.783 10.0456 12.8317 10.066 12.8774C10.0863 12.9318 10.1067 12.9862 10.1271 13.0405C10.1426 13.0758 10.1736 13.1111 10.1901 13.1464C10.2192 13.2093 10.2444 13.277 10.2716 13.3409C10.3084 13.4344 10.3123 13.5469 10.3404 13.6527C10.3482 13.6823 10.3482 13.7557 10.3278 13.7634C10.2851 13.7719 10.2367 13.7042 10.2076 13.6623C10.1571 13.5926 10.1087 13.5145 10.0708 13.4306C10.0582 13.3972 10.0505 13.3657 10.0398 13.3352C10.0117 13.2646 9.99036 13.1855 9.9574 13.113C9.93704 13.0701 9.90889 13.0224 9.89436 12.9747C9.87013 12.908 9.8808 12.8278 9.85459 12.7706C9.83132 12.721 9.79155 12.682 9.76828 12.6323C9.75181 12.5875 9.74405 12.5408 9.72369 12.495C9.69944 12.4407 9.66648 12.393 9.63545 12.3415C9.61218 12.2919 9.61509 12.2423 9.59764 12.1832C9.57826 12.1136 9.5569 12.0449 9.52687 11.9829C9.49584 11.919 9.45803 11.8532 9.42989 11.7865C9.41633 11.7503 9.40855 11.7121 9.39791 11.6759C9.38046 11.6263 9.35425 11.5729 9.33391 11.5223C9.32227 11.4861 9.31258 11.447 9.29802 11.4127C9.27281 11.3574 9.24472 11.2982 9.22144 11.2381C9.20495 11.1886 9.20204 11.138 9.18459 11.0894C9.15258 11.0045 9.12446 10.9091 9.09537 10.8271C9.07599 10.7613 9.06918 10.6955 9.05076 10.6316C9.02651 10.5544 8.99161 10.48 8.96156 10.4037C8.9412 10.3427 8.93731 10.2769 8.9179 10.2139C8.88883 10.1319 8.84618 10.0566 8.81901 9.96981C8.80254 9.90305 8.79863 9.83439 8.78507 9.77049C8.73659 9.61127 8.68423 9.4358 8.63379 9.27366C8.5756 9.09247 8.5698 8.88745 8.51645 8.70435C8.47962 8.57369 8.4321 8.4478 8.3904 8.31907C8.37586 8.25231 8.3739 8.1894 8.35646 8.1236C8.32058 7.97959 8.26533 7.7898 8.21778 7.63818C8.19159 7.55903 8.19935 7.47797 8.17608 7.39025C8.15281 7.30633 8.14989 7.20239 8.12276 7.11084C8.10531 7.05459 8.08201 7.01452 8.06943 6.94206C8.05585 6.8696 8.05585 6.78565 8.04518 6.73131C8.03549 6.67791 7.93949 6.35746 7.92882 6.29739C7.91815 6.2392 7.91913 6.13146 7.91039 6.09333C7.9065 6.06662 7.85609 5.92836 7.85125 5.89402C7.84349 5.85683 7.84349 5.81486 7.82893 5.74432C7.81439 5.67374 7.77269 5.51639 7.76589 5.47158C7.75813 5.42484 7.75813 5.33233 7.7494 5.28559C7.73971 5.24078 7.7077 5.13494 7.68638 5.05862C7.66213 4.969 7.68154 4.87078 7.65535 4.78496C7.63695 4.72201 7.61365 4.66003 7.59136 4.59806C7.57585 4.5456 7.55646 4.4741 7.55453 4.44166C7.55066 4.39302 7.5458 4.29194 7.54386 4.25569C7.54288 4.20325 7.52059 4.11647 7.51477 4.04208C7.50894 3.93908 7.48569 3.82938 7.47015 3.76743C7.46046 3.72929 7.46338 3.68544 7.45562 3.65014C7.42946 3.54997 7.40423 3.45655 7.35188 3.46324C7.31503 3.46988 7.30047 3.49946 7.31696 3.56528C7.33637 3.64347 7.34413 3.70546 7.36449 3.78173C7.37418 3.8237 7.37611 3.92767 7.37709 3.96103C7.38 4.01633 7.38289 4.02875 7.39065 4.08213C7.39258 4.10314 7.4023 4.15368 7.40907 4.17654C7.41781 4.21276 7.42946 4.26332 7.42846 4.28907C7.4265 4.32532 7.42554 4.36346 7.42554 4.41398C7.42554 4.43973 7.42846 4.44928 7.43912 4.49506C7.44882 4.53987 7.45366 4.54846 7.45755 4.58565C7.45949 4.61806 7.45559 4.64858 7.45853 4.67621C7.45951 4.71245 7.46242 4.74677 7.47307 4.77921C7.49441 4.84501 7.53997 4.93752 7.52059 5.0367C7.50023 5.14066 7.53319 5.24172 7.55646 5.33233C7.56809 5.39052 7.55646 5.4563 7.56809 5.51066C7.59041 5.58885 7.60979 5.67181 7.63113 5.75289C7.64953 5.81963 7.63597 5.88066 7.65342 5.94362C7.67865 6.0323 7.74071 6.1515 7.74942 6.19155C7.75527 6.2316 7.75429 6.33936 7.76689 6.40803C7.77852 6.47669 7.79501 6.55488 7.79986 6.59779C7.80568 6.64164 7.79792 6.66075 7.80179 6.6922C7.80859 6.72462 7.8532 6.87913 7.85998 6.91917C7.86676 6.96018 7.86578 6.97924 7.87354 7.02218C7.88228 7.06412 7.91815 7.22908 7.92491 7.28344C7.93462 7.33588 7.93171 7.36835 7.94042 7.42175C7.95787 7.50469 7.99086 7.57337 8.0083 7.6525C8.01993 7.71069 8.01606 7.74691 8.0238 7.79464C8.04127 7.86806 8.06647 7.93579 8.08003 8.00632C8.0907 8.06069 8.0907 8.11506 8.10235 8.17034C8.12755 8.28954 8.145 8.41066 8.17701 8.52794C8.19835 8.59759 8.24005 8.66242 8.26041 8.73012C8.27881 8.79115 8.28368 8.85789 8.30017 8.91892C8.31664 8.97233 8.35448 9.02101 8.36803 9.07629C8.37775 9.12683 8.37677 9.17451 8.3845 9.22507C8.39808 9.28035 8.42231 9.33664 8.43398 9.39385C8.4427 9.43674 8.43883 9.48061 8.44947 9.52641C8.46597 9.57502 8.49117 9.61887 8.50282 9.66847C8.51542 9.72953 8.51542 9.79054 8.52996 9.85157C8.54839 9.9231 8.57939 9.99272 8.60173 10.0576C8.62305 10.1195 8.61142 10.1863 8.63081 10.254C8.67153 10.398 8.72 10.5573 8.76946 10.6917C8.78985 10.7651 8.78593 10.8395 8.81407 10.9187C8.83345 10.9711 8.85675 11.0064 8.87807 11.0503C8.89453 11.0989 8.88002 11.1504 8.89358 11.2038C8.91781 11.2896 8.93237 11.4079 8.96242 11.4937C8.99829 11.591 9.05551 11.6701 9.09043 11.7636C9.12434 11.8628 9.1263 11.961 9.16024 12.064C9.19225 12.1508 9.23782 12.2318 9.27078 12.3119C9.29988 12.3825 9.28823 12.475 9.31637 12.5494C9.34642 12.6304 9.40652 12.6934 9.4366 12.7763C9.47247 12.8717 9.49577 12.9661 9.52678 13.0624C9.53551 13.1025 9.54422 13.1425 9.55198 13.1835C9.58786 13.3066 9.65574 13.4086 9.69937 13.5268C9.71584 13.5822 9.72071 13.6289 9.73525 13.6794C9.76726 13.7643 9.80215 13.852 9.84096 13.9331C9.87586 14.0056 9.92338 14.0771 9.95635 14.1496C9.98737 14.2173 9.9932 14.2869 10.0232 14.3565C10.0504 14.4233 10.0834 14.4967 10.1105 14.5673C10.126 14.6102 10.128 14.6483 10.1464 14.6884C10.2308 14.8763 10.3364 15.0651 10.4237 15.2501C10.4712 15.3502 10.4926 15.4589 10.542 15.5609C10.5799 15.6411 10.6264 15.7173 10.6623 15.8041C10.6855 15.8585 10.6923 15.91 10.7166 15.9624C10.7641 16.0616 10.83 16.1646 10.8776 16.2638C10.8892 16.2886 10.9241 16.3953 10.9096 16.4373C10.9096 16.4431 10.9067 16.4497 10.8999 16.4535C10.8679 16.4621 10.8048 16.4078 10.7689 16.3725C10.6468 16.2571 10.6274 16.0339 10.542 15.8823C10.5178 15.8394 10.4897 15.7908 10.4674 15.744C10.4567 15.7126 10.449 15.682 10.4325 15.6497C10.3801 15.5504 10.3152 15.4618 10.2676 15.3588C10.2327 15.2834 10.2289 15.1976 10.1949 15.127C10.0553 14.8324 9.89531 14.5492 9.76246 14.2535C9.7004 14.1191 9.6878 13.9665 9.63543 13.8215C9.60246 13.7348 9.5501 13.6632 9.51422 13.5831C9.48319 13.5192 9.47641 13.4534 9.44827 13.3876C9.4085 13.3037 9.3542 13.2265 9.32124 13.134C9.2999 13.0758 9.29214 13.0148 9.26887 12.9566C9.24269 12.8908 9.19712 12.8383 9.16803 12.7754C9.12728 12.6829 9.1205 12.5913 9.08947 12.4845C9.073 12.4283 9.04875 12.3682 9.02935 12.3148C9.01481 12.2671 9.00801 12.2156 8.99154 12.1679C8.94984 12.0573 8.88293 11.96 8.84124 11.8456C8.81312 11.7683 8.81796 11.672 8.785 11.5967C8.75784 11.5366 8.70743 11.4861 8.6822 11.4231C8.65506 11.3563 8.68026 11.2763 8.65797 11.1961C8.63759 11.1208 8.60658 11.0502 8.5804 10.9797C8.56681 10.9358 8.56295 10.891 8.55032 10.8481C8.51542 10.7565 8.48246 10.665 8.44754 10.5734C8.43203 10.5267 8.43203 10.4838 8.41167 10.4418C8.38646 10.3875 8.34574 10.336 8.32633 10.2778C8.30208 10.1891 8.2953 10.0947 8.27301 10.0079C8.23714 9.89256 8.19252 9.79812 8.15861 9.68659C8.14987 9.64941 8.14987 9.61603 8.14018 9.57502C8.11302 9.47678 8.09753 9.36425 8.07036 9.26411C8.05872 9.21646 8.06165 9.17449 8.05 9.12777C8.02186 9.03334 7.9889 8.93702 7.95983 8.84834C7.94431 8.79017 7.94042 8.7301 7.92684 8.67477C7.87934 8.52602 7.83764 8.35245 7.79208 8.20942C7.78045 8.16745 7.78432 8.13024 7.77171 8.08259C7.73584 7.97006 7.68832 7.83464 7.66311 7.71924C7.64953 7.65154 7.64953 7.58572 7.63497 7.52278C7.61657 7.44459 7.58938 7.36924 7.57193 7.29201C7.56709 7.25483 7.57193 7.22621 7.56804 7.19666C7.56222 7.14518 7.55642 7.09366 7.54768 7.04314C7.49629 6.84098 7.41483 6.58824 7.36828 6.38418C7.35568 6.31075 7.35277 6.2354 7.34501 6.16293C7.33725 6.11239 7.33336 6.0523 7.31883 5.99986C7.30331 5.94552 7.2781 5.89019 7.27035 5.83582C7.25774 5.74716 7.25774 5.66132 7.24416 5.5774C7.24318 5.57073 7.24125 5.56409 7.24027 5.55738C7.22187 5.45247 7.16757 5.23888 7.15592 5.15395C7.14236 5.0529 7.12974 4.95085 7.11811 4.84975C7.11424 4.78492 7.10358 4.71625 7.09388 4.64665C7.08033 4.54175 7.05412 4.44926 7.04152 4.34053C7.03376 4.26807 7.03763 4.20321 7.02796 4.14124C7.02309 4.10309 7.02213 4.03537 6.97268 4.03537C6.92322 4.03537 6.93 4.0926 6.92711 4.13743C6.92031 4.2471 6.94165 4.38917 6.94941 4.45783C6.96588 4.58273 6.95425 4.70672 6.96781 4.83355C6.97559 4.9051 6.99886 4.97757 7.0066 5.04529C7.02404 5.16449 7.03665 5.28749 7.05216 5.40289C7.05314 5.40477 7.05314 5.4067 7.05314 5.40956C7.05799 5.4639 7.06476 5.51733 7.07445 5.56878C7.07445 5.57453 7.07641 5.57834 7.07641 5.58407C7.07739 5.58691 7.07739 5.58881 7.07835 5.59169C7.0803 5.5955 7.0803 5.59737 7.0803 5.60026L7.08126 5.6012C7.0861 5.62411 7.09095 5.64698 7.09773 5.67085C7.11131 5.71658 7.10551 5.75474 7.11907 5.80338C7.15687 5.94169 7.14816 6.09331 7.18695 6.22967C7.24414 6.43089 7.27421 6.65594 7.33238 6.85619C7.34885 6.91629 7.33238 6.97443 7.34983 7.03643C7.36535 7.10035 7.38279 7.16232 7.39831 7.22621C7.41478 7.3044 7.4022 7.37976 7.42351 7.45795C7.44194 7.52853 7.46328 7.60196 7.48462 7.66964C7.50596 7.75166 7.50789 7.83844 7.53021 7.92809C7.55639 8.01773 7.58838 8.11691 7.60487 8.20846C7.62425 8.31144 7.63397 8.4316 7.65332 8.53937C7.67178 8.6309 7.72219 8.74153 7.74448 8.84071C7.7503 8.87409 7.74644 8.90651 7.75322 8.94181C7.7668 9.0124 7.78909 9.0839 7.80363 9.15256C7.81236 9.1831 7.80945 9.21172 7.81816 9.247C7.85308 9.37859 7.8938 9.54263 7.9355 9.67422C7.94715 9.71044 7.95197 9.74763 7.95975 9.78483C7.98689 9.87732 8.01501 9.94596 8.02568 9.99655C8.0354 10.0404 8.04022 10.0909 8.05186 10.1396C8.07125 10.2102 8.09452 10.2731 8.1081 10.3341C8.11779 10.3818 8.12653 10.4266 8.14008 10.4753C8.1556 10.5344 8.18083 10.5887 8.20506 10.645C8.24482 10.7642 8.24967 10.8891 8.29234 11.0036C8.31755 11.0722 8.35149 11.139 8.37476 11.2105C8.39317 11.2782 8.39804 11.3574 8.41938 11.4308C8.45914 11.5462 8.50277 11.6759 8.54543 11.7903C8.59488 11.9257 8.62398 12.0745 8.67148 12.2023C8.69086 12.2547 8.68795 12.3043 8.70444 12.3615C8.74323 12.4893 8.78784 12.6323 8.83049 12.7611C8.85377 12.8307 8.85472 12.8965 8.88091 12.9623C8.92552 13.071 8.99046 13.1626 9.03121 13.2741C9.0661 13.3704 9.07389 13.4648 9.11072 13.5535C9.15919 13.6727 9.21641 13.7929 9.262 13.9197C9.29398 14.0046 9.3037 14.0904 9.3415 14.1715C9.37253 14.2411 9.41325 14.3126 9.44526 14.3832C9.4666 14.4443 9.4889 14.5062 9.51023 14.5682C9.52768 14.615 9.57812 14.6951 9.61304 14.758C9.65183 14.8429 9.65958 14.9354 9.69255 15.0279C9.74394 15.1681 9.81375 15.3101 9.87388 15.4398C9.8962 15.4904 9.90104 15.5381 9.9214 15.5934C9.9563 15.6868 10.0174 15.7555 10.0581 15.8413C10.096 15.9243 10.1066 16.0092 10.1425 16.0893C10.1968 16.2065 10.2375 16.2657 10.2366 16.4326C10.2356 16.4469 10.2307 16.4583 10.2143 16.4641C10.1832 16.4765 10.1474 16.424 10.127 16.4059C10.0368 16.3191 10.0232 16.2342 9.96699 16.1141C9.8807 15.9309 9.77014 15.7593 9.68481 15.581C9.64022 15.4866 9.62371 15.3874 9.57814 15.2892C9.55196 15.2319 9.51415 15.1728 9.48701 15.1166C9.44724 15.0317 9.42591 14.9449 9.38227 14.8676C9.31924 14.757 9.26882 14.6274 9.21937 14.5024C9.19999 14.4557 9.19707 14.4109 9.17767 14.366C9.15537 14.3183 9.11948 14.2735 9.09718 14.2277C9.0652 14.1505 9.04386 14.058 9.01378 13.9798C8.94399 13.832 8.86642 13.6756 8.80918 13.5192C8.75586 13.3761 8.73065 13.2388 8.6773 13.0929C8.65599 13.0328 8.62594 12.968 8.60558 12.9079C8.5862 12.8536 8.58519 12.8059 8.56872 12.7544C8.51929 12.6228 8.45625 12.4845 8.39906 12.3587C8.37092 12.2957 8.36319 12.2337 8.33891 12.1679C8.30886 12.0878 8.27394 12.0001 8.24487 11.9209C8.2051 11.8151 8.20317 11.693 8.16245 11.5824C8.07614 11.3459 7.96365 11.0989 7.89094 10.8481C7.8764 10.7919 7.88027 10.7327 7.8628 10.6745C7.82303 10.5506 7.78038 10.4104 7.74257 10.2778C7.69796 10.131 7.70281 9.97363 7.65722 9.83058C7.59709 9.6427 7.53021 9.44911 7.47008 9.26505C7.45168 9.20977 7.46039 9.15157 7.44197 9.09054C7.40222 8.94843 7.35277 8.78062 7.30427 8.64803C7.28004 8.58224 7.28004 8.50881 7.25483 8.44778C7.22476 8.37245 7.14623 8.39916 7.15301 8.48402C7.15883 8.56034 7.18499 8.66045 7.19373 8.7005C7.20246 8.75388 7.20246 8.80731 7.21507 8.86357C7.23834 8.96369 7.2713 9.04667 7.29944 9.13629C7.32949 9.23164 7.32949 9.32038 7.35761 9.41667C7.37119 9.46528 7.39155 9.51967 7.40611 9.56542C7.43712 9.66176 7.43712 9.76664 7.46915 9.85441C7.49534 9.92305 7.51472 10.007 7.53701 10.0814C7.55059 10.1309 7.54768 10.171 7.56417 10.2187C7.59131 10.3064 7.61945 10.3951 7.64855 10.4829C7.66115 10.5334 7.65533 10.5792 7.66793 10.6249C7.68731 10.6945 7.70285 10.7671 7.72321 10.8319C7.74259 10.8948 7.74066 10.9806 7.76298 11.0474C7.80177 11.1685 7.84736 11.2982 7.88903 11.4117C7.93558 11.5385 7.94042 11.6721 7.98794 11.8017C8.07134 12.0306 8.14989 12.2938 8.23422 12.5255C8.25556 12.5847 8.24683 12.6447 8.26721 12.7106C8.29533 12.8097 8.31667 12.908 8.35156 13.0062C8.36901 13.0529 8.40004 13.0996 8.42138 13.1426C8.44756 13.1998 8.45532 13.2598 8.48053 13.318C8.50089 13.3638 8.53192 13.4105 8.55034 13.4602C8.57751 13.5336 8.56681 13.6232 8.59689 13.6928C8.61823 13.7481 8.65021 13.8082 8.67155 13.8664C8.69482 13.9303 8.69482 13.998 8.72101 14.0562C8.74428 14.1086 8.78309 14.1591 8.80732 14.2106C8.82963 14.2593 8.83544 14.3089 8.85482 14.3632C8.8752 14.4185 8.90719 14.4767 8.9295 14.5273C8.95762 14.5845 8.9586 14.6522 8.98574 14.7123C9.00901 14.7637 9.04586 14.8143 9.06622 14.8696C9.08563 14.9297 9.08854 14.9945 9.1089 15.0546C9.14573 15.1443 9.20197 15.2224 9.24173 15.3093C9.27083 15.3712 9.27276 15.4447 9.30284 15.5095C9.3358 15.5848 9.38335 15.6573 9.41822 15.7307C9.46283 15.829 9.49871 15.9329 9.5404 16.0273C9.61605 16.1942 9.64125 16.3764 9.71883 16.5394C9.77702 16.6605 9.85361 16.7759 9.90887 16.8941C9.93894 16.96 9.94864 17.0306 9.97967 17.0944C10.0155 17.1659 10.0747 17.2279 10.1096 17.3004C10.1367 17.3729 10.1571 17.4463 10.1881 17.5169C10.2308 17.6103 10.2939 17.6924 10.3355 17.781C10.3598 17.8325 10.3704 17.8831 10.3947 17.9346C10.4412 18.0338 10.5188 18.1177 10.5653 18.2149C10.5896 18.2807 10.6129 18.3456 10.6371 18.4114C10.6865 18.5153 10.767 18.605 10.8194 18.7108C10.8563 18.79 10.8824 18.8729 10.929 18.9454C11.0027 19.057 11.0483 19.1314 11.12 19.2439C11.1665 19.3183 11.2267 19.426 11.2645 19.5052C11.3023 19.5843 11.3634 19.6502 11.4002 19.7284C11.4371 19.8037 11.4866 19.8866 11.5273 19.9582C11.5728 20.0402 11.6223 20.1012 11.6737 20.1775C11.7581 20.3024 11.8114 20.4369 11.8948 20.5647C11.952 20.6514 12.0189 20.744 12.0819 20.8288C12.2506 21.0558 12.494 21.4649 12.5988 21.6013C12.6831 21.7129 12.7549 21.8454 12.8334 21.9627C12.8945 22.0533 12.9702 22.142 13.0361 22.2249C13.0914 22.2955 13.135 22.3709 13.1883 22.4443L13.23 22.4986C15.3972 25.205 17.6226 26.9998 19.5087 28.1747H19.5067C20.5006 28.785 21.0359 28.9652 21.0359 28.9652C21.1629 29.0158 21.0757 29.1054 21.0117 29.1455L9.83421 36.1747C9.79929 36.1976 9.71202 36.2614 9.74596 36.3301C9.77313 36.3835 9.88753 36.352 9.91761 36.3425C18.8881 33.247 25.3966 30.6998 29.3761 28.8422C33.4107 26.9596 34.7674 25.8839 34.618 25.3479M10.7572 14.9515C10.7349 14.9114 10.7087 14.8637 10.6922 14.8189C10.6738 14.7703 10.6709 14.7236 10.6495 14.6768C10.5788 14.5223 10.5012 14.3526 10.4295 14.2C10.3994 14.1371 10.3596 14.0188 10.3878 13.9377C10.3926 13.9253 10.4159 13.9339 10.4256 13.9435C10.4498 13.9654 10.4663 13.9778 10.4867 14.0007C10.5022 14.0236 10.506 14.0474 10.5206 14.0703C10.5565 14.1228 10.6011 14.1752 10.6282 14.2343C10.6874 14.3573 10.7029 14.4985 10.761 14.6196C10.7998 14.7007 10.8629 14.7703 10.9036 14.8523C10.923 14.8952 10.9365 14.9419 10.9501 14.9896C10.9598 15.0249 10.9579 15.0726 10.9598 15.1003C10.9618 15.1413 10.9569 15.1679 10.9404 15.1689C10.8299 15.1622 10.7989 15.0297 10.7572 14.9515M11.2226 18.3178C11.2197 18.3292 11.2091 18.3445 11.1916 18.3464C11.0723 18.3426 11.0355 18.1662 10.9841 18.087C10.9414 18.0202 10.9036 17.9478 10.859 17.881C10.828 17.8333 10.7883 17.7847 10.762 17.7322C10.7301 17.6636 10.7155 17.5921 10.6748 17.532C10.6544 17.4996 10.6205 17.4719 10.5972 17.4414C10.5332 17.3556 10.4721 17.264 10.4314 17.1553C10.4217 17.1172 10.411 17.078 10.4004 17.039C10.3771 16.9732 10.3461 16.9026 10.3228 16.833C10.3131 16.7996 10.3063 16.7262 10.3131 16.7023C10.317 16.6909 10.3208 16.6842 10.3296 16.6852C10.4217 16.6995 10.509 16.9188 10.5545 16.9989C10.603 17.0848 10.6816 17.1525 10.7242 17.2421C10.763 17.3212 10.7746 17.4214 10.8192 17.4996C10.8532 17.5597 10.9094 17.6074 10.9473 17.6655C10.9977 17.739 11.0316 17.8362 11.0695 17.9182C11.1121 18.0117 11.1751 18.0832 11.212 18.1728C11.2275 18.211 11.2343 18.2758 11.2226 18.3178M13.7331 17.8171C13.6778 17.8133 13.6536 17.778 13.6187 17.7532C13.5256 17.6864 13.449 17.5777 13.4471 17.4204C13.4451 17.4042 13.4519 17.3994 13.4606 17.3994C13.5712 17.3984 13.6846 17.5663 13.7273 17.6435C13.7389 17.6683 13.768 17.7303 13.7641 17.7751C13.7632 17.8047 13.7506 17.8171 13.7331 17.8171M14.4885 17.8457C14.4138 17.8734 14.2315 17.6702 14.1811 17.5949C14.0861 17.4547 13.994 17.3012 13.8931 17.1658C13.801 17.0437 13.6992 16.9569 13.6759 16.7471C13.672 16.7214 13.6575 16.6594 13.673 16.6594C13.7748 16.668 13.8718 16.8416 13.9212 16.9083C13.9571 16.9569 13.9988 17.0056 14.0337 17.0571C14.0812 17.1305 14.1026 17.2202 14.154 17.2888C14.217 17.3746 14.2936 17.4538 14.3605 17.5377C14.3973 17.5844 14.4449 17.6245 14.4681 17.6865C14.4788 17.718 14.5098 17.8362 14.4885 17.8457M17.126 19.2847C17.0174 19.2991 16.8952 19.1436 16.8429 19.0711C16.8274 19.0492 16.7663 18.9252 16.7827 18.9062C16.805 18.8881 16.9292 18.9291 16.9631 18.9558C17.0445 19.0197 17.1105 19.1074 17.1483 19.26C17.1512 19.2771 17.1357 19.2838 17.126 19.2847" fill="white"/>
</mask>
<g mask="url(#mask0_217_215)">
</g>
</svg>
